<mxfile host="app.diagrams.net" agent="Mozilla/5.0 (Macintosh; Intel Mac OS X 10.15; rv:130.0) Gecko/20100101 Firefox/130.0" version="24.7.17">
  <diagram name="Page-1" id="pv_4tfzleMGwWDhMJLxL">
    <mxGraphModel dx="2074" dy="1094" grid="1" gridSize="10" guides="1" tooltips="1" connect="1" arrows="1" fold="1" page="1" pageScale="1" pageWidth="827" pageHeight="1169" math="0" shadow="0">
      <root>
        <mxCell id="0" />
        <mxCell id="1" parent="0" />
        <mxCell id="1W6Do4FqAaNzwl3g4o6q-19" value="" style="rounded=0;whiteSpace=wrap;html=1;" vertex="1" parent="1">
          <mxGeometry x="20" y="250" width="725" height="520" as="geometry" />
        </mxCell>
        <mxCell id="1W6Do4FqAaNzwl3g4o6q-2" value="Package: &#39;MyExamplePackage&#39;" style="rounded=1;whiteSpace=wrap;html=1;" vertex="1" parent="1">
          <mxGeometry x="100" y="570" width="200" height="40" as="geometry" />
        </mxCell>
        <mxCell id="1W6Do4FqAaNzwl3g4o6q-3" value="&lt;h2&gt;Stack&lt;/h2&gt;" style="text;html=1;align=center;verticalAlign=middle;whiteSpace=wrap;rounded=0;" vertex="1" parent="1">
          <mxGeometry x="155" y="620" width="60" height="30" as="geometry" />
        </mxCell>
        <mxCell id="1W6Do4FqAaNzwl3g4o6q-4" value="Class: &#39;MyExampleClass&#39;" style="rounded=1;whiteSpace=wrap;html=1;" vertex="1" parent="1">
          <mxGeometry x="100" y="520" width="200" height="40" as="geometry" />
        </mxCell>
        <mxCell id="1W6Do4FqAaNzwl3g4o6q-5" value="Method: &#39;myExampleMethod&#39;" style="rounded=1;whiteSpace=wrap;html=1;" vertex="1" parent="1">
          <mxGeometry x="100" y="420" width="200" height="40" as="geometry" />
        </mxCell>
        <mxCell id="1W6Do4FqAaNzwl3g4o6q-6" value="" style="shape=image;verticalLabelPosition=bottom;labelBackgroundColor=default;verticalAlign=top;aspect=fixed;imageAspect=0;image=data:image/png,iVBORw0KGgoAAAANSUhEUgAAATgAAADpCAYAAACwaitUAAAWdmlDQ1BJQ0MgUHJvZmlsZQAAWIWVWAVYlE+3n3cTNqile4mlu7u7O0Rg6e42QFRUUEpKQgEVRBSQEkElDBBJEUERJURAUTEQBJS76hW//3ef797nnud59/zes2fOzLxnzpw5AwAbghwREQKjAyA0LCbK1kiX19nFlRe9BNCAAWABO2Ake0dH6FhbmwMK/eH/pK9PAPSTj0n8tPU///9fid7HN9obAMiagr18or1DKbiZ8mx7R0TFAABvoMj542MifuLHFMwYRRkgBS/9xP6/8fZP7PULI+h+6djb6lGwAABUODI5yh8AnDRFzhvn7U+xg6P0hWII8wkMA4DBh4I1Q0PDKZz1AkVHmKITQcEDFKzs9S92/P9h02vXJpnsv4t/z+UXUekHRkeEkBP/n5/j/6bQkNg/fZAoDy4gytiWwinjgiaDw812cZiXpdUfHOjzS/8XDog1dviDvaP1XP9gH7K+2W7bEEvzP9gv0NBk106Mif0f7BttYPcHR4Xb7vblF6Wn8weTo/72GxvssCsP8DXZtZ8UYO/0B8cFOlr+wdHBdmZ/dfR25VGxtrvj9w0z0v3br+Hu3EOj/2W+gSa7bWMC7I13507+O37fMJ2/NqOdd8fm46tv8FfHYVc/IkZ3t6+IEOtdfd8Qo115dJzdbtsYyoL829Z69xsGkU2t/2BgDgyAPuAFeiAQhAFfEArIlDd9yls0iAAhlLfEGN+EmJ8T0wuPSIwK9A+I4dWhRJwvr0mYt6Q4r6y0rDwAP+P39/L4bPsrLiHm4b+ySEp7VRUAYGV/ZWQxANrFKWFz5a9MQBEAbAkAHfPesVFxv2WInz9IgAG0gBGwAW7AD4SBBJAFikANaFNGbwqsgD1wAe7AGwRQxh8F4sF+cAikgQyQDfJBMTgHzoNL4CpoBNfBTdAN7oOHYASMgykwAxbAW7AKvoItCILQEB4iQGwQDyQIiUGykDKkCRlA5pAt5AJ5Qv5QGBQL7YcOQxlQLlQMVUA10DXoBtQNPYBGoafQLLQMfYI2YXAYDsYI44KRYFIwZZgOzAxmD9sL84dFwpJgR2CZsCJYJewKrBXWDXsIG4fNwN7C1uAAjoUzw4lwCbgyXA9uBXeF+8Gj4Afh6fACeCW8Dt4O74WPwWfgK/BvCBSCgOBFSCDUEMYIB4Q3IhJxEHESUYy4hGhF3EWMIWYRq4gfSDySEymGVEWaIJ2R/sh4ZBqyAFmFbEHeQ44jF5BfUSgUM0oIpYQyRrmgglD7UCdRZah6VBdqFDWPWkOj0WxoMbQG2gpNRseg09Bn0FfQnehH6AX0BhWWiodKlsqQypUqjCqVqoDqMtVtqkdUi1Rb1HTUgtSq1FbUPtSJ1FnUF6jbqYepF6i3MPQYIYwGxh4ThDmEKcLUYe5hnmM+Y7FYPqwK1gYbiE3BFmEbsH3YWew3HANOFKeHc8PF4jJx1bgu3FPcZzweT8Jr413xMfhMfA3+Dv4FfoOGQCNJY0LjQ5NMU0LTSvOI5j0tNa0grQ6tO20SbQFtE+0w7QodNR2JTo+OTHeQroTuBt0E3Ro9gV6G3oo+lP4k/WX6B/RLDGgGEoMBgw/DEYbzDHcY5glwAj9Bj+BNOEy4QLhHWGBEMQoxmjAGMWYwXmUcYlxlYmCSZ3JkSmAqYbrFNMMMZyYxmzCHMGcxNzI/Yd5k4WLRYfFlOcFSx/KIZZ2Vg1Wb1Zc1nbWedZx1k42XzYAtmC2H7TrbNDuCXZTdhj2e/Sz7PfYVDkYONQ5vjnSORo5nnDBOUU5bzn2c5zkHONe4uLmMuCK4znDd4VrhZubW5g7izuO+zb3MQ+DR5AnkyePp5HnDy8SrwxvCW8R7l3eVyEk0JsYSK4hDxC0+IT4HvlS+er5pfgy/Mr8ffx5/D/+qAI+AhcB+gVqBZ4LUgsqCAYKFgr2C6yQhkhPpGOk6aUmIVchEKEmoVui5MF5YSzhSuFL4sQhKRFkkWKRMZEQUJqogGiBaIjosBhNTFAsUKxMbFUeKq4iHiVeKT0jgJHQk4iRqJWYlmSXNJVMlr0u+lxKQcpXKkeqV+iGtIB0ifUF6SoZBxlQmVaZd5pOsqKy3bInsYzm8nKFcslyb3Ed5MXlf+bPykwoEBQuFYwo9Ct8VlRSjFOsUl5UElDyVSpUmlBmVrZVPKvepIFV0VZJVbqp8U1VUjVFtVP2gJqEWrHZZbUldSN1X/YL6vAafBlmjQmNGk1fTU7Ncc0aLqEXWqtSa0+bX9tGu0l7UEdEJ0rmi815XWjdKt0V3XU9V74Belz5c30g/XX/IgMHAwaDY4IUhn6G/Ya3hqpGC0T6jLmOksZlxjvGECZeJt0mNyaqpkukB07tmODM7s2KzOXNR8yjzdguYhanFaYvnloKWYZbXrYCVidVpq2lrIetI6w4blI21TYnNa1sZ2/22vXYEOw+7y3Zf7XXts+ynHIQdYh16HGkd3RxrHNed9J1ynWacpZwPOD90YXcJdGlzRbs6ula5ru0x2JO/Z8FNwS3N7cleob0Jex+4s7uHuN/yoPUgezR5Ij2dPC97bpOtyJXkNS8Tr1KvVW8970Lvtz7aPnk+y74avrm+i34afrl+S/4a/qf9lwO0AgoCVgL1AosDPwYZB50LWg+2Cq4O3glxCqkPpQr1DL0RxhAWHHY3nDs8IXw0QiwiLWImUjUyP3I1yiyqKhqK3hvdFsNIOSgNxArHHo2djdOMK4nbiHeMb0qgTwhLGEgUTTyRuJhkmHRxH2Kf976e/cT9h/bPHtA5UHEQOuh1sCeZP/lI8kKKUcqlQ5hDwYcGU6VTc1O/HHY63H6E60jKkfmjRkdr02jSotImjqkdO3cccTzw+NAJuRNnTvxI90nvz5DOKMjYPul9sv+UzKmiUzuZfplDWYpZZ7NR2WHZT3K0ci7l0ucm5c6ftjjdmsebl573Jd8j/0GBfMG5QkxhbOFMkXlR2xmBM9lntosDisdLdEvqSzlLT5Sul/mUPTqrfbbuHNe5jHOb5YHlkxVGFa2VpMqC86jzcedfX3C80HtR+WJNFXtVRtX36rDqmUu2l+7WKNXUXOa8nFULq42tXb7idmXkqv7VtjqJuop65vqMBtAQ2/Dmmue1J41mjT1Nyk11zYLNpS2ElvRWqDWxdfV6wPWZNpe20RumN3ra1dpbOiQ7qm8Sb5bcYrqVdRtz+8jtnc6kzrWuiK6Vbv/u+R6Pnqk7znce37W5O3TP7F7ffcP7d3p1ejv7NPpuPlB9cKNfuf/6Q8WHrQMKAy2DCoMtQ4pDrcNKw20jKiPto+qjtx9pPeoe0x+7/9jk8cNxy/HRJw5PJifcJmYmfSaXnoY8/fgs7tnWVMpz5PP0abrpghecLypfirysn1GcuTWrPzswZzc3Ne89//ZV9KvthSOv8a8LFnkWa5Zkl24uGy6PvNnzZuFtxNutlbR39O9K3wu/b/6g/WFg1Xl14WPUx51PJz+zfa7+Iv+lZ8167cXX0K9b6+kbbBuXvil/69102lzcit9Gbxd9F/ne/sPsx/Od0J2dCHIU+ddRAE55YH5+AHyqBgDvAgBhBADMnt/n6/8mOOXwAaNwR0gSegsrg7sjRJBo5EfUMnqC6iX1LGYdh8STaMxoY+jK6ScIWEZNpiTmepZFNlF2Mkch5zA3kkeB15eYydfI/0jgPQkmRCNMK4Kl7HzfxN6Jz0qMSd6RapG+IJMte0AuSN5RQVtRVImgtK28oDKg2qxWqn5YI0jTVktTW1yHR5dZj06f2gBh8N1w3WjVeMlkxnTSbMj8nsVNyyarq9aXbWpsL9tdta93uObY5NTk3OzS7Nq0p9Ht2t5693qPRs82crfXgPdTn9e+X/x2ArCBzEF8wWIhCqFaYSbhDhG+kfFRp6KrYjpjJ+M+JlAn8iYp7bPc730g4WB6cmFK+aGK1HOHi45kHU1L23cs8rjfCdd0ywydkwqnhDM5sxiysTnUudjTdHms+cQCsUL5Io0zBsUWJQ6le8q8zwafiylPqciurDjfcqH/4suqL5eoajgvS9XqXnG46l+XUH+8oeBaZWNtU1Nze0tn673rD9oGb4y2j3dM3py69fL2q863XWs98DtMd4Xvqd+37vXui3+Q3l/6sH6ge3B0aGb43cja6Oaj7bGtxxvja08+TryjrLb5Zy+mJp8/mh580ffy3sz92f65R/PTr5YX1hahJdwy6xv+t5IrKu/03pt8MFvV/yj7ieXTp8+9X86sBX9VX6dZf7lR/y1l02aLuPVxu/t7zg/PHemdnX/4XxLJi/xM8f8bqjnqj1gMThBvQBNAm0XXQ/+ZIMHowXSG+TErns2C/ShHF+dXbjEeD96TxGa+J/xfBGlJnEIkYaIIqyhWdENsTnxIol3yvNRJ6TgZT1kTOWl5FvnvCq8U+5XqlfNUklTd1XTVSRpUGm81R7XatM/r5Oim6sXrhxh4GToamRlrmsiY8psxmaPNNyzeWD63GrXus+mxvW3XYd/m0OLY4FTrXOVS4Vq8J8/t1N5j7qkeyZ7J5FSvdO/TPqW+1X4N/m0BXYF9QcPB4yHPQ1+FrYRvRKKiWKLFY3RjnePC4g8nFCZeSerc92j/qwNrybAUzCGaVNxh1OEfR74cXU6bPjZ6/N6JtvTajLMns0+lZsZnhWb75/jnBp2OykvKP1yQUXi6qORMZXFNSUNpS9nNsz3nHpY/qXhVuXYBdZG1SrRa/ZJljcfliNqUK9lXy+vq62819F8bb3zZtNS82rLRutOGuoFvZ+xgv8l7i3RbvFOuS6PbtMflTsjd5Hun71f3tvcNPpjp/zSAGGQeIg0rjOiOmj+yG3N67Dru9sR9wmPS86nnM/IU+Tl5mvyC/NJ7JmA2Ym7/fPqr4oXa1x2LA0vTy+/ebK/g3rG/J32QXJX6KERZATufZ790r5V/PbjutqH6jfXb182xrYbtU9+Dfhju8P+b//9z/A8RMIzqTNGU+P9AiX9vjhLOx9x4HnXeYGIh323+OYEfJHohorCoiIiokBhRnF2CTpJaCkh9ll6UmZTtk2uVr1LIVzysFKm8V8VMVUmNX51GfUNjXnNEq0u7SeeSbrleiX6+QabhMaMU4wSTCFN/M3dzewsTS00rRWspGxFbkp2APZ8D0ZHHidOZzYXZlWEPzg29F9r73f2bx7rnBnnLG+ZD5Uvrx+zPGUAMJAWJBkuFyIYqhKmEa0UYRdpEeURHxKTE5sRVxF9L6EocTpre93b/xkFYMiYFd4g6FaJk0VdHHh/tSas/VnY8/URsOjnD4qTyKf5M2szvWe+y53Ke506ensibzH9aMFk4WTRx5knx45Kx0tGy4bOD54bKRyueVE5TMt3qxc1qxCV8DdNl7lrSFcmr8nWq9VoNetf0Gw2a9Jt1W7RbNa6rtindkGuX6hC7SbrFd5u7k6OLo5u7R+COxF2le7r3LXqd+rwehPTHPUweOD6YM1Q0fHakYrTyUflY6ePC8ZwnGRNHJg88jX8WPhXw3HPa5YXdS+sZm1mnOa/5yFepC/mvLy12LA0uz7z5tIJ4x/he4IPsqsZH/U+Gnw2/6K1pfVVbV9yQ+Sa2Sdri3Wb7TviB30H99P/ve5afhKLUlBcoecLhGADmOQCcVQOAhAEARwOANR4AexUA080CMDk5AJM+v5s/IErhSQ3oACsgAjGgRKmPbYAHCAfJlJqyErSAB2AafIYwEBFSheyhcCgdqobuQwswFEwYZk6p9Yoo9d0KnA1uDE+C18OXEAKUSu0CYgkpSanFelC0KE9UE5oK7YnuoGKlSqB6Rq1FXU2pkw5i3mE9sKM4fdx1vCj+LA0TzSlaKtqjdEi6Y/Q4+tMMXAw1BCVCL6MT4yJTIjOWuZxFiWWENYQNw1bLbsn+haOU04jzM1c5twX3Jk81rwMRSWzlC+In8j8TyBe0JRFI40LFwp4iQiLvRJvEEsW1JFASw5IlUgHSyjJYmZeyrXLZ8iEK5oqyStzKBBUaVTo1FnWihpSmlpaddpDOEd0KvW79eUO0kaixmUmg6VGzcvMOi0nLdWs2Gw1bX7ss+w6Ht5S1bOWS6tq8Z2Evs7uhR7xnLXnGm83HzjfHbzSAEOgcVB68EqoWlhm+GGkQVR2Dj42Pe5Vgn9i7T2N/60HZ5IZDMqmNR+SOXjsmcbwqnTuj6BQhMyebPifvNHteZYFEYccZi+L50uSz/OdGKo6e17kIr3pwKfeyxxXpOnj9s2vNTTktkddtbkh3YG/O3W7pSutxvit+H9Y79aD1Yf5g3LDrqO6Y9LjwhOxTh6mi6a2ZuLnthWNLLG+uvDP88OrTsTWp9eebmd/1f+0ff/zP8sv/ihT/WwN3EAoOgExQDprAfTAFViE0xA0pQdZQMJQGnYe6oRkYBOOHGcKCYbmwDthrOAGuC4+FX4a/QhARZMRFxApSHpmMHERxocJRd9Gc6Dj0GKWWzqP6Ru1J3Y9RwlRh2bCncHBcEu4jPhA/S7OHZoLWkXaCbg/dHH0w/TrDUQIzoYZRk3GMKZBph7mQRYZlkOJ9GrZGdmcOGEcdpxsXnquTO4pHkGeSN52oQfzEd4mfLMAlMCVYQnIXEhB6K9wikiJqLsYiNi9eJ5EoaSjFKLUg3SaTKesrpy3PKb+lMK14h5LPKlSKVUvUKtXrNG5R9rPX2ju6HHqq+m4GhwxrjEaNv5lym2mZe1gcsCyzum09Z0ttJ2vv7nDK8bbTZxcRV689JW5j7hgPHc8E8jWvtz7Cvv5+Nf7vAuWDDgb3h7KFBYd3RbJFxUVPxKrHXUigTTyQ9H4/+cBksk3KYKr54cGj1mmPjtueGM2wPNmfaZzVm2OSO5TnkP+iMLhos/hkKbGs45xL+Y/K2gvuVSzVj2vya12vEutWGm40pje7t8q34W8sdnTeyuv07Za/A+4O3i/tC+3XHmAZXB0eGK0dyxyPm/B/6j+VNF398u2czqvKRcxy7NuF966rjz5brY1sOG6+/B76D///5/h/8Sv++X7Ff9iv+L9HiX8kTAhmBouAFcI6YW/gzHADeDy8Fj6H4EK4IooRz5FEpD+yAbmNMkWVoD6gDdBl6A0qB6oWahbq/dTzGAtMO1YYW4SjoqyAFbwH/jGNOc19Wl3abjpduvv05vTjDGSGD4SDjDSM5UyyTPeZ3Zi/sGSxirMOsIWxE9g7OHw5GTi7uCK4eblHeA7xyvK+Jpbw2fHT8D8UyBC0INGTngpVCoeKqIgiRUfFysQDJZQk0ZJPpeqkj8q4y6rKscltyr9Q6FVsUapVvqRSp9qhNqA+q7GpxaytoOOse1CvWn/MEG4kZ+xtkm3abjZnQW0pY+Vqfczmuu2yPbeDk2Ou04gLnavdngK3SXd2jz2epeQX3vw+Qb7N/lCAdWBl0HqIVWhtOCYiNHI8WjemMU4ovjyRM6lkP+eBymTRlJZUvcOPjwakbR/PTidmNJzSyHyQ7Zjz+nRCPq7gQpHmmamSfWXcZ++Wh1fynH9yMb/atUbw8tqVvrpzDYmNTs1KrRxtsBsrHRO3ujuru9PueNyT6YX6RvrLB6KGjEZ4Rr+NPRlvnSh+emgqbNrrpces/3ziwunFpuXJFfBebNX108kvPV+3viltxX2/8dP/v+/mf+UPOgBySbBmIcG+iy+J/34v/vve/l9qk3/n4Fd2+Uk/s8svTsk04L8ARptjEDUdW8wAAAB6ZVhJZk1NACoAAAAIAAQBBgADAAAAAQACAAABEgADAAAAAQABAAABKAADAAAAAQACAACHaQAEAAAAAQAAAD4AAAAAAAOShgAHAAAAEgAAAGigAgAEAAAAAQAAATigAwAEAAAAAQAAAOkAAAAAQVNDSUkAAABTY3JlZW5zaG90i19DGwAAAu9pVFh0WE1MOmNvbS5hZG9iZS54bXAAAAAAADx4OnhtcG1ldGEgeG1sbnM6eD0iYWRvYmU6bnM6bWV0YS8iIHg6eG1wdGs9IlhNUCBDb3JlIDYuMC4wIj4KICAgPHJkZjpSREYgeG1sbnM6cmRmPSJodHRwOi8vd3d3LnczLm9yZy8xOTk5LzAyLzIyLXJkZi1zeW50YXgtbnMjIj4KICAgICAgPHJkZjpEZXNjcmlwdGlvbiByZGY6YWJvdXQ9IiIKICAgICAgICAgICAgeG1sbnM6dGlmZj0iaHR0cDovL25zLmFkb2JlLmNvbS90aWZmLzEuMC8iCiAgICAgICAgICAgIHhtbG5zOmV4aWY9Imh0dHA6Ly9ucy5hZG9iZS5jb20vZXhpZi8xLjAvIj4KICAgICAgICAgPHRpZmY6Q29tcHJlc3Npb24+MTwvdGlmZjpDb21wcmVzc2lvbj4KICAgICAgICAgPHRpZmY6UmVzb2x1dGlvblVuaXQ+MjwvdGlmZjpSZXNvbHV0aW9uVW5pdD4KICAgICAgICAgPHRpZmY6UGhvdG9tZXRyaWNJbnRlcnByZXRhdGlvbj4yPC90aWZmOlBob3RvbWV0cmljSW50ZXJwcmV0YXRpb24+CiAgICAgICAgIDx0aWZmOk9yaWVudGF0aW9uPjE8L3RpZmY6T3JpZW50YXRpb24+CiAgICAgICAgIDxleGlmOlBpeGVsWERpbWVuc2lvbj4zMTI8L2V4aWY6UGl4ZWxYRGltZW5zaW9uPgogICAgICAgICA8ZXhpZjpVc2VyQ29tbWVudD5TY3JlZW5zaG90PC9leGlmOlVzZXJDb21tZW50PgogICAgICAgICA8ZXhpZjpQaXhlbFlEaW1lbnNpb24+MjMzPC9leGlmOlBpeGVsWURpbWVuc2lvbj4KICAgICAgPC9yZGY6RGVzY3JpcHRpb24+CiAgIDwvcmRmOlJERj4KPC94OnhtcG1ldGE+CgV2cWMAAEAASURBVHgB7F0HfFVF+j339Zq85KUXSkLvIB1EBKWIgth777q7f3V1111d3bWube2urr3uKhZAmggIhBJ6h/Te60teb/f/zUt7iZQkL5CXMMMvvFtnvjlz77nfzNx7PiFx4AQRpznZLSYMHT4DObn7T3NJPHuOAEeAI9CCgKRlkS9xBDgCHIHehQAnuN7Vnrw2HAGOgB8CnOD8wOCLHAGOQO9CgBNc72pPXhuOAEfADwFOcH5g8EWOAEegdyHACa53tSevDUeAI+CHACc4PzD4IkeAI9C7EOAE17vak9eGI8AR8EOAE5wfGN2xqBx8B1bsS8XBjy9GnOS0v3PdriqK2nF4cf1W5KY8g+m6rrFJGr8IX+1MxdHvbsMQZdfk2a7K8IPOagQCIjhRFKBNHI65V16Pvz10EQapuv/CFUU9Zr6xCnlpqa3+dr8xDaFi99sXyNXGzI+Y9wr2srodW49vb0iArLFOIv0azn0SWw6xem/CmoeHQNWO+oqCHiMWXotrJhqb8wrERn4uRyCYEJAFaowAJ6pLKmGJDzirQE1pfb5oQcaaFVhX6PRtt2UUwt76iJ67RsQlQoMhcyYi7usC5HuoKoIBoy8+B9Ey2tcBHpfFnIuH/3IP4r7dix9TK+H2Q0UUPVROFyVvF+bVRSbxbHo/AgF5cIIgwlyQgV0HC2FiN1knkqibhDdSUrDl5UW48uFXsWrTehzZ9j98/IcZGDnjNry7ZCkO7luHlM8fxsWJcgiRs/FuCnWftr2KxTGCr0Rp/EJ8mbodmesex/TQxlvSa8H+r/+N51960/f32o958MRfhHc3pSBn+9u4JUkOURqLK99Ziewjq/HF9X0hFzUYcd1j+PyHJdi1exPSdi3D8tdvw4yoBvJWDLoVy/euw7f3zMdd//wAm7b/ikO/foAXrhqJcVf9CV+vWoUje1Zi1avXYrReIKIREHPp69h/ZBneuuoSPPbxd1SX9djy5SNYnKSk/b+lD1GUIWLi9Xj5y++wb98mHNr4Cd6+d4qPuJrh9dYjfV8xZENnY2psg22CYQQunRSCyoNHUeZqPpLKkCF2+i147ZsfsX//Rhxc/yFeu20cjFIR8sT5eO7dh3BemApD7voUaembsOr3g6BsPN3jUmLMbc9iZcqvhMWP+PapBRiobrBZFLQYsuj/8PGyFTh8YCP2/vweXrx5LCIoX5ZEWRRm/uFVrN++EUdSPsUr1/SHwvvb+jYWxX84AqcFgYAIrusskiH+4kfw54l12LxyG/JliZh174v44aWZ8Oz6BWvSnIiZeDke/9146MtS8cX6ErjChmPhpEhIRAlipl6IEaEu5P+yHHtrG62SaDH62nvw2CO/o7+7cP3oELgL1+DplzejXDcWDzyyAJMuvh8PzjCgdut/8MS3ueSLOmCyayAt2IKPXn0Nb/xqw4C5d+DFRycjvNmX0WLCHx7BtfqjWPnzEViNI3DNP/6Dr++JQ9a69dhepcXQi+7E45e2dB8hjcKCx27GgOz1WLKlAoZxl+OZ56/GYNVvEVQNvgbvvP0AFiYU4KsXXsTrW+SY+bun8eaNRBBNhChxozhlO3Llg3AxYcA4JWz0HEwJLcGGtQVwNPC+j0A1I27Fe2/cjfnGDHzy7Mt4d48Oc//4HP51RQIkjiocOVxBtXahLOUz/O2Jl/H6unJaa0iyuBm4a5YE235YhZ11YZhwzf/hqUviIPUCURc+ig+fuQZTtJn48dPvsbG2Dy7788t4785BUHkFxF/yJ7x891QkejLw8+qDUMxYiLGGRsN+W22+hSNwWhAImn6lYD2Ct/70DD7KUePXkBH44nIDMr56Fg+/dgzCcDdGfH0LEuITEa7Yij3f/IKsRTdjzMXjEb16L6YvGIJQex4+XXoMFkHRABR5GAPnXYWBvjUztuX/hP/tM6Foxet4YfZIvDTnYXw6XQZl3XY88cxS5DgFCIIHBd8/geu+b8hCliLDzPMfxvA+/ajczTD7NgtwFf6Mxx59Gdsc/VE95GP8daQV6557Co+vrUVUWjzWvkx2DQiHAgUNGcGLig2v4Y9Pb0a1ZiPcS97BXQOmk/f1FfIaj2A/oqjEwIsvwugQGw6+8wbe+i4f7g02TJj5LKbNnYqEz3NQzw4UJETWW/Fr/gJcO+8cRC3dgqELz0Fo0WqsyAzHec2PLSLby+ZiqNaCnS+8jnd/KIW4TcTUc5/A2PnjYfxmKVZuK8WDV8Sj5sg6/O9/R2EXyPPUskKoGFs6/vPoU3gzzYX4nASseX4s4gZHQC51Y9qVUxGPYvz3r4/jL9vqIIvPQuQPj2PiZYsx7PMPEH3hcESgEj89+Qj+b201ZP0L8fX3D2JEQ9b8f47AGUEgaAjOaylBeiXzHWSwmOzkRThRmllF/9MWuwkW6gITBflAsaatxLeHr8QTI+di5hgVLh6qhzXtUyzLYKNsjQTnKceS267Bw9stvnN8/9HNC3cJ1n6+EYWzrkB/hQuFG7/Bihwql93YyjhceMc9uGPuKCRHaqFQKKClm90pSNHMGZSRozwbpaworw01zDBnLbKKrZSHCHuNFS7yqCQSSaO1rGQ3aooqYWM9NEc1clk947WI0EiBVl17OULjQqgGWoz/89c4+md2bkOy1xihp9byERxtEuy5+HlzCW67fDamDLJi5gQd8n78BenWq/1sVSA8Rkf56THt6e+Q9nRTboBVHw6dHKhp2fSbJdFWgsNlDoJGgKXK4vPsfPWS6RBrkEFw1SC7wubb7zYVo9DixfSQSBjVakSEKCA4y5FRQPjT+a6qXJRYRU5wv0GZbzidCAQNwYkuNzyMAJqTF17a0GpT0z5nAVZ+sw/3PzcSN9wchoQQM/Z+tx65DfMJTUcd/1c9ENc/OBd9UYeSGiXi5t6FW7/aj1f2WxE//1G89LuJ8Gx7Hw/98Wfk6ubgtQ/uxZA2OYluB9zUTWtONBjvaUVUzXsaF+QI7xMNrXAUNpURSZFEwm4zyhk5tuqmulBXUgcnjQUefesJ/G19Ffl+DUl0ViPTBqKqpmRDxtpUFN14EW69LxRx+iL8d3UOrCFN+9mvE7XlZspPit0vPYFnt9U24+m1VyDXAZpZbjiekdhvOpA0MeA6Xr1c9SiudUJUGOlBoIaYSR5caDwS9BI4aypQZbNBXuei/Qb0i6L9xxy0PwaRqt+U4G8sX+YIdDkCQUNwHamZIHhRsvF7/Fo6EYtnUie0Zgv+t7EEbrpJm+9giQ5jrr8fT8xsYD1L2o/U5StG8g2P4oFxSuQveQy3rRiP9967Bnf+/Uasv+F9VCnk5D964XJ4oYwYiPMvugCD1B2x7ETHShA58yG8/o9RSA+biqv6yVG/ZxO2lpAn17/lHEFwIH35Khy45j6MvvIaLLauw5E6KYx9kxF6+DO8nN5yLFuyZGzAlpLLcdOFI2A/+hFWZZNbOcb/GAsOf/czji26FWOvuwoL3RvJw1Misn8/aHZ8hH9libBVVMDiUqDv/DvxJ3cGTHkr8fbP/nkcZ9lbiZQvNiJv8kIseuYZuFdlQzNpHibpbTj2xU84Wl+Lsl+OoPr8Kbjo6efgWH4UkrHzcI6ujcN6nKz5Jo5AVyLg3/PqcL6iMhFX/v4BPP272RhoHIBbHv4d/nLVAOpgHdfv6nD+JztBrN6DL9cWwUUj7GVbl2JLWZOv03iWoMGAOZfjjluv9f1dNzMOYUOvwdP3jISqZANeeHMLMlM/wT+WFkI27Bo8d/cImNa8i9dX5UIy6S68+fLdmFL6Ld7eVtMFtbEjc+0GlA2ei2vOi0btzm/w2F+WIIM8qLbJnvYV7rnnX1iSFYGLH3gYzz95P26bEQVXnbPZm2s6RzRnYkVqGflpdmSv34AM8vD8E/PKrAc/wu33vY2lhfFYTJMjz//tHtw0JQzW+ob86vd/jle+P4za8Im47oa5GMe8y1MkNnteufFV3PrIp9hUn4xFt1yOCyJKsfqNx3HXu4dhk3hRuPwFPPpBKkq1I7Bw0Ri4f3od7x+ibjxPHIEziIDQUyXLRSEMs5//BO8vcOObO2/BYzTQzW7oYErsNZHYxa9hzT/HoPjtO3Hp62k0wxlcNgYTXtwWjkBXI9DjuqiixIBzLl+MueOn4fKLomA7+A4+2Rt85NbVDcXz4whwBDqOQI8jOND7bUMvuga3jnYibd37eOmFr5He9OJXx+vPz+AIcAR6MQI9tovai9uEV40jwBHoIgQCmmToIht4NhwBjgBH4LQgwAnutMDKM+UIcASCAQFOcMHQCtwGjgBH4LQgwAnutMDKM+UIcASCAQFOcMHQCtwGjgBH4LQgwAnutMDKM+UIcASCAQFOcMHQCtwGjgBH4LQgENCLviK9dDv43Atw8YQ4hAoWZG1bR4KOhbDSJ0o8cQQ4AhyB7kYgIA9O03ccJqiP4NPX/41/vLcVljGzcEFik+B1d1eNl88R4Aic7QgERHC2nM34cnUGqkjh0W3Kw958IJr0vyRN0tpnO7q8/hwBjkC3IhAQwbWyXKKGkcQWTTX21iK1rQ7iKxwBjgBH4Mwh0CUExxw2Td+xmKLJxbYCe9DJFp05OHlJHAGOQDAh0CUEJ9EnYf78BOSu24XC44g4BlOFuS0cAY7A2YNA4ASnjMK5l81A+IG1WJ1phcgFHc+eq4fXlCMQ5AgERHCiLBwTFs3HmIpf8d+tJJ3NyS3Im5ubxxE4uxAI6D24iLGzsHCYAVLPQjw+SQqphMLDle3A2+9vRpGLvwt3dl1KvLYcgeBDICCCq9q5BE/sPF6lOLkdDxW+jSPAETizCATURT2zpvLSOAIcAY5AxxDgBNcxvPjRHAGOQA9CgBNcD2osbipHgCPQMQQ4wXUML340R4Aj0IMQ4ATXgxqLm8oR4Ah0DAFOcB3Dix/NEeAI9CAEOMH1oMbipnIEOAIdQ4ATXMfw4kdzBDgCPQgBTnA9qLG4qRwBjkDHEDhrCE5UD8NjX72ERVE96ysLUZaIWz58C3cPkHesZfnRHAGOAAL6VEuUhWD4uedj3jkUk0FqR+H+FHz3Szqq3T2LRJquA1Gih31IJOTHsiDz9sw6NNWF/3IEOAJAQB6cTBuNRCENX775Lv7+5loU9DsXCwbrIPRQyXIxfBTqzhsKd0C0zy8rjgBHIFgQCOhW9pgysGZ9Q1VEsQzpxW4khakghRnuYKlhO+3whk9A9bVz4KQubNUfRkKo3gXjZ2uhECNhvWAhTKMT4YUF8kNrEfbzPihILcUz6AaUTc6HrmIQzL79NVBuXoqQ2qGovWAcXKEySPK3w7BkDTRmEd6Y2ai4VAv1UR0skwbAo3RBdngDwlakQukgWWSeOAIcgS5FICCCa7JEFCXQxQ/FlHgLjqSa4O6BunCS6p0IWxYH50I3wt/7CSqnAFFUwTHvepii9yD89Y+h9Mag7vpbUD29HFHri6n6ArwDpsC5/0PErKqC2H8uym+6A1WZP8H43rNQeKPo+DthmnoQqjWFPri80efAduwTRL38JSTKvqi79iZUzSlH9LIsSHsgbk3XAP/lCAQjAgF1UVmFREUsFtx3H564YxKU+1KwrcwVjPXsnE2qOJiHyaHctAMqO3lYjhLoUkvgHTYMrsYxf6HmCHRHK6ivL0JSdAyKunooUvdB6Tu+EuqMWogROtrbmOz50O7OhZSN8VnzoEvJApJHwMWjLTYhxH85Al2GQMAenOAswYp33sYvhnhMXjAH14sr8dm2yh7pxf0GVZkOXq0RzusfRZGnca9ECtFUDnJafUmw10PStI86sfA4IHE2b6AnAKO2lgkLwW2DxEXH0TaBPDbBUgNBboQ34EdNgz38f44AR6AFgYAJjmUlCCKcpkLs2FGJSdPiEEK/1ewe7pGphYzgsUBiLoP227cRVtTWM6UxOF/9mn2zdtVWlGlo7I3YjDw8kchP1IZDdNVB0mPxale1+UEcgW5BICC/IWzkTCyaGA8aS4egjMCw0dHwVtXC6ufAdEutOlmo4DBDooqGSyfzOV6itQjaYyJss6bAriPPjQjJqw6HI1LtW+5UMao+sExMgkdCxKjtC/PMJCDjEOQ8Glmn4OQncQROhkBAHpwpOx3ls6fi7gejESJzoDRtN5asL4C9hw6WC+W7oT8yAKa7H0ddLc2ifkiTDb98AcPMBai5dxY8GnoekEen+vV/CC+3ngzXE+4T6rKgwmSU//EG8uSckNGsrHFdDp9gOCFifAdHoPMIBERwXksxti1bgm2dLz+ozhS8tdCueI/+msxi3dUqaH75jP6atjX+MhJP/xxx6Wy9oVsrOPNhfONfzQcKggeKLW8jbgs7hGZcfYc6odj0FQxr/brCzWfwBY4AR6ArEQioi9qVhvC8OAIcAY5AVyPACa6rEeX5cQQ4AkGDgJA4cELHpgE7YbrdYsLQ4TOQk7u/E2fzUzgCHAGOQOcQ4B5c53DjZ3EEOAI9AAFOcD2gkbiJHAGOQOcQ4ATXOdz4WRwBjkAPQIATXA9oJG4iR4Aj0DkEOMF1Djd+FkeAI9ADEOAE1wMaiZvIEeAIdA4BTnCdw42fxRHgCPQABAImOFGUIX7mdXj64fkYqDztr9R1GFKmVuSJHQFreEBfpXW43NNxAvvYP3yEBu99GYFvr5BCzirXmESVFIt/H4ZNP0bi8Pfh+PxuJRKDsD2a7OW/HIEzgUDABCcNH4YLRyjgCFaNckEH+3kXwhKpOBN4nrYymP7cuKtC8fXv5bBWtxAbK5Dx3PArQ/BwggMP3FiOUTfX4dckLV65VEaS662PPW0G8ow5AkGIQEBujShoMXTmSIj7D6N4ZETQVU8U9LDNvwG1Q6Mg9vsDit1WKJb+B+FpNogDzkP1vClwhMshqUyjD+yXISSfFELkcai9/VKIe9LhmTiR9isgKdyJ0DVpcJ97ESxJEfB6K0llhBRFdpXRN/QhsN54JyyZ2yEdNh32OC1gyoF21fcITTf5RC2bgGHS7jEXP4NvHzDjiWufQ2rcnfj8rUvRrw33mra+iKsf/ZU+8/f7IJ++1LcUO/DIw07oHgjDg02Zsl/y3i6YLMHWD23YX8c2uPDNf1247k4VBvxgxhEn28YTR+DsQ6DTBMe6S6o+52BmaCZ+/NWEOaOCj+AEsR7q1UvgSrwdjl/fQFRag8SRN2IqKi8bCfkyUvpIt8Az4gpUXL4A8v8sgZrpshHJWUcdRcRHLyDCFYn66+5GzW1J0P73E8T810KS5Zeh/JILYT/2JdQWdtGEwDk5FmGf/gvh1YB79OWoWHwZpO99Cr3J34PywlZ4BNt32FHuFGE/8h9cOes/J7jq/MiNjmBr6VscPm9telu/WyHF0BAPUsvFZkK1lblRGapAogac4E6AMN/c+xFoe6u0v8bySEw8Px75v+5DcVux2/bncsaPFEUp3MPGwVO+CSEZJoql4IEsfRuUSII1RtVoj4PiKuyG0kpuk4viKqRXQijdA102Ke8KXkjzDlPc1BC41NLG492QHtoGdZWTiIhFyvoVGkssbIkUi8Gvi8gUlur2f4FHn1yCo9bWBBYIEIJcgJKysxBpNiUvyaIza3RtvMOm/fyXI3A2INBpDy5s2CSMrduJj/PsJLvdk6CSwhumgTd5Mcr+vLDRcIqgJXdBKWeqvbRJtENiJXogRvKte70QHBR7oUlWXKR1Co7oc6t8ObghqWN00pg8NsjIs3PolL5gM83bm/Y3/qqGdaCL2uZc/1XRRd4g2a1VtJQkIdJTUOn1vHvqDxVfPssQ6DTBDRqdgOg+/fDokLkEmQQyijOQfL8c33+4HHtadcuCDVEPJCYrJEeXI/rrI79R0hVlIZ0wWAaPQdVCZlIt3HoKKGN2tJDecXLtSBf1OKe3bHJ4cMgkwbBIIuQCIl8iZnW0HMZ6N4qoV85IWqaUwetwQWRuJE8cgbMEgU53UXd8/h7++uzbeOJ5+ntzDdIr0vHp20uDj9xEB6Q2ChDTx0idUeaeuSE7ug/S+NmoG0LRrChgjigo4I6KgUfG9ncmEcGNmAarkflMcrhGngerqhiaQnPzmBjLlRFNyKhr8czjl2KQurNlHcc+msJes9GLiVerMFJPjxuKKXHlVQpYtzmQaZcg9pLnsXX3L1jx8DCofS7pcfLgmzgCvRCBTntwPQYLL000bNwB6+KbUTLeDtXS9xB+KAUR3wuomXMHiq8iRhBtkOZsR9iSEig7FTDHBvnhStgvexCmWB3NomZB+8N30NZQn7aVx0SeVcIIzJhmwdq3fkS6rWtQZB5b5rI6/DMiBG9+pkU0BbQ5vNGCP37jovgYEritFpjtNtRb3Q2y6V1TLM+FIxD0CHDBywCbSISeXhO5H+Zj7yNqB73Y0YrQAsycn84R4AgEhECnu6gBldobT+bE1htbldephyPACa6HNyA3nyPAETgxAr1/DO7Ede+SPQLqof38BfjelOFeXJdgyjPhCHQVAtyD6yokeT4cAY5A0CHACS7omoQbxBHgCHQVApzgugpJng9HgCMQdAhwggu6JuEGcQQ4Al2FACe4rkKS58MR4AgEHQKc4IKuSbhBHAGOQFchwAmuq5Dk+XAEOAJBh0BA78GJpGY78eYbcVWSsrFiDmT8+Dk+2G2ij9i5akXQtTY3iCNwliEQEMFBqoBWLMOKt37Ar+V+X6lzcjvLLiNeXY5AcCIQWBdVkEEnc6LO3qQEGZyV5FZxBDgCZycCgXlwEjk0uihMv+YGXKAGarL24qe1h1DC4hrwxBHgCHAEuhmBwAjOWY7Nq36GOy8fVZIoTF58Ma6eUYF3fi6Fk3dTu7lpefEcAY5AQF1UgdRyS9LzUUEem9dWjt3bCiHtE4/QwGiTtwpHgCPAEegSBAIiOH8LWPQoCQVtkXhINbYL1bj9y+DLHAGOAEegIwgERHAR58zBZRNjoZcKkOn7YPq5cTAdK0St34RqR4zhx3IEOAIcga5EIKDOZM2xIyi/8FzcNysKGrcJufs24NudVfDw8beubCOeF0eAI9BJBAIiOI+lECk/foOUVoXzF3xbwcFXOAIcgW5DIKAuardZzQvmCHAEOALtQIATXDtA4odwBDgCPRMBTnA9s9241RwBjkA7EAhoDK4d+fNDghQBpVoVpJYBDps9aG3jhvUsBLgH17Pai1vLEeAIdAABTnAdAIsfyhHgCPQsBDjB9az24tZyBDgCHUCAE1wHwOKHcgQ4Aj0LAU5wPau9uLUcAY5ABxDgBNcBsILlUFESi2s+/R4fzjMCJHLQU5OoGYvnvnoS5+p6bh16KvZni92BE5wyCpMuvRZ/eewBPPn7SzF3kB7SILvpmNKJuo8Sz7wbgY0Py0lm/fg3lCjKEDdlJkYbuu5zM4lehpueCMeed7QYomwpl5nQd6YOX34WgcMryK5X9ViUKBJftRxzui9CUYjAwneW41DKUmxf9Qpu6S8/aZGiKMDV/yHkzrsIDsmp7RS1I1EfGXJG63TSCvCdZx0CAb0HJwoaDJ93IcaYtuDdVwtg1USjj4rkkoIIRsYX/WeF4LWbpMgtEuE+mW3qJFz9wFWwPrkF+2tdJzvylPsYUYUM1uCZR9TQZ3tR34YPlH3VeOkuOTY+V4Wbj4gYuDAU7/5Zh6yHzDjUHkXkLiPCeqQ8dT/uWVsNnFIkwQtZ+QpE1pVAwRRjTvIcEAUj6ibeAEvmM9CdEi1+AEfg9CAQkAcnCemHiZFFWLM1BzUODxw1xcgosUE85Y1yeipzolxttU689GcT3jnsxYmUnERlEm5/6RncNmoE7vvwW2xe8RJu7C+DCA2GLH4YX65cgX2pq7Hl++fxhxnRUBDBiKIao//4GbZ8dDX6y9swGBnjsnqw5l81ePAnN/xfXWXklzBRhcg0C74+5IWbnghHfrZgvUqJRUm/ZQ1RasS0e1/A6pS12JfyDb766wVI8HO2REGHEVc+iq9Xr8S+7auw5dtncN+0KMh8Nmox/q9fYcv7i9BH9lsbT4QZ2y6JmYO3f/oUf5+kb+gKywaj4sI7YZEwBlbDOuUl5I+bgerpTyP3mo+Rveh+1OrlEJUjUTn776jsGwfHpGeRP+cS2Nvh8Z3MFr6PI9AZBALy4BThCTA4ahA9YxEuHWaEpCoDa5ZvxWFT8PhwjGvL9jpQSjf74N9yRzNmgiMbHz72CsZ8fxcO33cP3st0+Ya3ws99BG/fo8V7D1yJG9IdCB9/I9568VmID9yP14+4UJO+D1ud+ahvw5wCFWwvdGIllaAZ2VxM44KAKCKyukwPzIxzmF0UuOdQpYDFfSSQHPE0h10URQniFvwZL15aj39edzGW5VPX9qJH8emV5O3RaazbGHH+w3jzdgFv3Hc5fsxywTjpVrz7/NNw3/s7vJfmQtWxPdhKDx9zB5tFtJbiwK79MFU4G7w7TRIc0nKE1hPBSeNgN0bBpZoOMeVl9N2qQu2cp1GXHIfQvQdgPLAbVhpbi1z+MTQeVsGTgE97eeIInA4EAvLgpEo1QuKTEZ63AW+98RW+zYvHRXOToRc65imcjop1TZ4hGLV4POwrPsPSdAt5ph5U7voOb6aGYsHCAeTbuZC/7FU88sY2VHo7dgOrNAKcNrGlO+/xwky9YhUF72nVKIIBo+cNQtUPX2B1HvMDHchd918szSLSYYn2j1s8GnXff4YVWVay0Y2K1G/w9l4jFs3vBxUdn/Pdy3jknZ2o7qCNYt0BvPfUq/hvtsM3juYNHQK3Ix0KJ7WvPBE2nQfKAx8gvKSWDCGrpbTdwY6VwmVMgrf+aENX1mco/48jcOYRaHUvdbR40euFrWA3NqfXwU3xGYqOpMEUFo8wv+5TR/MMquOlakSFS1FbaPIbu3OgutACTYwegVTTbhWhUAstZCaVQEsZ2q0U38IfBLIhUi+iqqCO6LQxuepRbGokOKkWMWESVBf57acOcVWxHdrokIBsbCqu4VcFZ3QchFoiOPJWxZAhcHmPISS/nIbuiNxl8TQGa4eyqobWdXDGGCAtLfBxXut8+BpH4MwhEBDBueoqYNHGwNB0pwuUnejt0TEZmnqMvibw2FBW5UFYogEtfXkljAlaWIr9CaXjDVaaQZMQyVJom05VSjAiQkR6AeHnP4bpsaOyXkBYjK6FrGQahGkaLfJYUFrthTHRn8xUiIhXwVxqaiHFpnI6+yvo4YjUQlZSSm3MPLRkiOb9UDkavHUxZDDcQhHUddR9lUXCFuKCsrK6gfw6WyY/jyMQIAKBEVxlBg46+2PWqAgoJCr0GzMYmqJsVDY6FwHaduZP95pR6TJgaDJ5HzRmB9GE/Uu2QnLRTbh0sBYC3djGcy7H/ZPrsGpFNqxEOYkLfofn7p2EiA4MojP+Kky1o2CABtcOl4BCWmDIBVpc6HViRX4DYTRXXqzB/p8zEXnZNTg/QUHdPwXipy/G4oGNaiBiLXZ/uwOaRTfj4mRmowyRk67CfWOr8NPqPPLlFOh36f/h2bvGIawDNrLyBf1I3PaXB3BFfyWRVhxsGjOUNWYiLS1cMREQKrIhI3eTjRO6w5PhtRyGknVfpQa4FG5IXDQRQ/mcyVdfmnHjCxwBQiAggoOrEtuWbkft8AX448M3YGF4Bn5YXwS7vwfSk2C2ZODz93ch8dHPsHPDO7h3iBK129/Gfa+XYd6r32DPjpVY+cQw7Hz6cbx72EY1kyN86AScN7EfBd7pWEVdRVb86V03JjxixP6fIvDRPBHvvWjGHnPrfATBi6LlL+CxVUY89L9V2L/lC7w8KQdfbKr0dWUFGu+s2vwG7vt3LS5761uycQWW/TkJm598Ah+msdlOBSKGT8TM8YnQd7C1BW0szpk2ASOjFIBuIFxCIdRsgkEWBauBal9W1jh1oKEuaTSEykzI2WSLKwf6QppAmfs28qePpxgdrevE1zgCZwoBIXHghDYuQ9cXbbeYMHT4DOTk7u/6zHmOnUKA6cGxF30Xvf0GLvq+ve/BdaqoE57EvmR4/oOFWHXXU9hsbmFBrgd3Qsj4jg4i0MFnegdz54cHOQL04rNdTu/JfYSUn17GTf2aBlOD3GxuHkegnQi0jJ238wR+WO9BQBCrsPKhK33v6vWeWvGacARaEOAE14IFXzrDCAjWvfjLdXup1Jbu6Rk2gRfXyxHoVoILCQv1weuws8FwnjgCPB4Dvwa6FgE+Bte1ePLcOAIcgSBCgBNcEDUGN4UjwBHoWgQ4wXUtnjw3jgBHIIgQ4AQXRI3BTeEIcAS6FgFOcF2LJ8+NI8ARCCIEOMF1UWOIqiF49JPncEnkyTMUNf1QMG8y6vzky5vOYDJD1jGzkTfCQIIFnfvARFTGoWjeuajRBverF6KoxIjfv4V3L46ApJN1bcKN/3IEToRAQK+JhI27Ag9d2oc0x1qSq3w3/v3er8h3BfcN1mLxmVtiH517QyLgdtdC3qx95Fc+SSPZDRLI0q2dfjNM1EXC5amFkgQ0m94vE0U5LBNnobSvxq8wtihCmpOCPrsq6IN/3l5twOGrvQCBgAiuZs8SPLGnAQWRaG7Q/IWYWLoPJGTbdG/1Aoi6sgpSOMMpQoGp4PgxDWQ62FR2qE2uTskM+YLChFGQF3NmK6FJQXBBu3M1kncK8MROQMFwM2I2HIXK0+Al+vTcurKaPC+OQJAgEBDB+ddBETMa50dk4se1ta31zPwPOtuXBSUcRgUFbpGjdtIs1MWoIZQfRcyObKhIbVfUkXfnrYOKvC9GVt6IJJSPGgAbxTkQrBUI3bcXYSQfzghJlIXANGIkahMMpNbhgiJzB+IOW+CMUEFaaSa5Jykc/c9BabIT4VsOQE9iwA1KuxRfwZQHhVtsJlFRHY2qMcMpApYaorMGIbt2wkjliOHDUDjKi9BCDcx9wuFUWhGSuh+a0IGoTjLCqSLi3J2KyFJ6UVsSguoZY+DNyoMY3wf2MJImLj2CmP2FFL+Ce4dn+6XfXfXvkjE4CsqHpMlJqN+Vhorjdb26q3bBVi6p79pJttcdHwnpsU3ot3on1IwsopXweunDd0MovNbKBu8rJAklE/tAkr4F/ZatQlymANO4obDRI0kkPTbThMmolRciZvUKJP20AbEZJggkhOmTEa9xwtl3nB+5NY7nEcHajTLIK8zNOlmiNAyVU0bBXr0PictXI7ZAifokIk06xRMSDncoKfW6MhG74VdEF6lgmjwBtUIOYtdTmdkSWPqHNSgQK0Jg14fA3FcJ3e7NSFx/ELKYwagN67JnaLC1JrenByDQJQTn0w2LMeFAPotbwJ/WJ2x3bRicChu0+w4i1EQBDJ0WKMiz8ioZCcjhNKrJ+6qHxCuDdUB/eIoPIaKQkZEXitIiyGWhsCuYZzcAtaGViNifB4rSSCKXLsiYR6YywCmzQRY+AqUDXI2eWyO5MaNYF1hNSru19gYvkHa5EobA7MlCJBGkGBqL+mgplWWhMmXkDZKAZnkaIvLrqAx2vhRCXQ6MOUSm5JWJJLMuuNy+8ULmfbro4/2wvRnQuOkacJMcqFsKt5xfDwx6nroHgS55vCoi+yPKUoBiijPAB9+O35BsotATYoSnPh+hFHPV182UKEj5VoTERusyLWz0aa48jyYYaNlqFKA4UNsy+C8nL48EyKUeCZyR4RCrj0DN5ML9HihenREuJanpDiJSqdgHtd9EA7NK1NN+1CPEzFQp6RhBAXsczdgawlA0PxnSumpo0ncglmJOCESmtlARymOVFH6QDpfQBEioBIqscvgiJNK5jnA5ZAUk/Elk52Jjf6TwrGu6BmRquEj9UtYoac7K54kjcKYRCJjgmFy1PioMEtMxWFom7s50PXpAeWyCgSIwWEjmu5FfmMdkl9eTN0f9egXFPJDboKtnLpkMXqkXUvLKWGLk6AqPgcdSTJLg5MGppJDYaSzOr9a+CQYjja9VH0XsXg+qpg+AKaQUxrqGEDYsDzcRrNdGExxN0a+JpDxKD1S7NyKuoMGra8iSvDM52UPepqbW0UDGTRMgfut2DXmDJrZf4fM+JRY7vfJB9lImHmMCHN4aCjHICvO31M9ovsgROM0IdEEXVQo9DU47KcpTw610mi3uqdmTB+QIU8BLXpSDum2iMhJVo/sAeWnQU/hAUR8Jt6sGSubxUKAZpUVG3lUYBXKhLqyhHypIPl1zjAbsvR5IiWS8UfE04yphL3rApaFYDSRN7ghXQlZUCWV9KQxlctQnk8fooxsGGnWBo9SQVNQ2eGRsk5ciNhABOhOi4aTAEKKExugMOt85op66nOx1k6agMjoaj/OaoLI2trKGJh2EeqjNRGBs7C9UDm8YdcFJul3UJ6CS4nTIM1h3lRXEE0egexAI2INjYR1UOho4L6dZt+6pQ88olbqddkkpItLIybpgPhwyJ1Qk4R5zhCJPEUk5WBev/phvgkEQrAjdcwjOCWORt1ABwVYD3eFURJQ6IZFQ15XOCwsdjfK5C+ih4oQ8Zy/iKFi0Xeem8TUbeVQeaLIKIJk+EHVplQhj3UYpkVAI0VxByzt2AsVQ1RzeD9340Si6ZCREiiKmyj6IKAos4yUpK7GeQgQSQbF2dYeGU1CZHF/MBfY+n4fWPbayBm9QbYBDqIKhSI/yeQsodoMN6oxdiMmu93l/PaOBuJW9EYFujcnQm/Tg2JcMf/r3TTj6yF+wvKI3XirHr5Pv5eUYerduaC1iN2VA2c7g0uxLhpF/eAX3Zz+F+wmwplCJPB7D8XHmWzuHQBd0UTtXMD+rtyBAY4tGHQRTdUNErd5SLV6PXoEAJ7he0YzdWAk2m2qk2dTKlq5vN1rDi+YItEKAd1FbwcFXuhsB3kXt7hboXeV3wSRD7wKE16Z7EWDxWnnqfQh014OLd1F737XEa8QR4Ag0IsAJjl8KHAGOQK9FgBNcr21aXjGOAEeAExy/BjgCHIFeiwAnuF7btLxiHAGOACe4LrgGmCS4eeIFyB9Mn1uxr9rbJFGXhPx5k1CvaLOjnau+WA2jZyFvNH0udZz825kNP6wLERBFL2KHHMSPlxQjzqcl1YWZ86y6DIGAXhNhChb65Mm4fO5gxKgE2PL34ruf9qGIBF7PqkSxFGx6gaSO2HegrZUzfJ8y0YfrHgcJWfrUQVrvbxdOEhV9qyqFLJNkjPxO8IYOQcH5Q+Fq24quChjXptA3qH4HB/GiaBgIs7oQumJ6WbgNfsFqtiBIUFmQgFfqVKhg+gP+DdNBo5WGcsxQGPALCSR0h56izJCHTy+vwQ/fjsKSuhafR1RU46lr6fO7DWPwWB59E91D2sYf/pba+G9t77IqDhfM7YOCpV/hn6/9F6usw7BgnJHksn/rxbQ3yx55nDIUDqUdKp80UNsakHCkkYQjaynQDJNJ6kzySRXRx/ltYjUItcfQ58cfkPzDBtKYM0OzdQWSl9D60hQYLD2jDURRAduEWTDFB9f7b6I0BAkJoSS3fmIcXZYwbC4m3bsAbnyRxEqHj8nHtdGuZpXlzlwigZzjMkVgaY0di/pZSWmmob7swRwaU4ppCMUPpT2T3BgmbZ/9HcNJpoIeJhyqJpeNvLnCzBrIBlFMAMqls/dyxwwIjqO9LJaCi1RvY0ahYFAcnBISlaS4BhFlJNfLZMLDZZDlNHhfIsUuqBsxAjV9wiiWggPK3EOIOlxCMkgkV8SEI+MGo2J4P5I2l0BiKUHE5j3QkjSRW6xDqI3Ej5QxqJg2Aq7cnYjNMtFNQeeRXLiDpIG1TEizERKRPqGyJo9E5eBoEp70Qp57ALEHiukC1qBu2iRYC7NIUrwfbL7YCQcQk0GhGkYMhDWMNOtITDNmJ8VtIJs8CRNRHFcCgykSdQlhcEnrYdi5B4aa1oFx5H0ux/vvzceRRx7Ai9mD8LcP/4a5EW2en9UpePC2V7DT0mAl69rbp1+FsrGx8HpuR+5kGxQpXyF2TzXEuPGomDMd1iglfeeaD/26lTBSfSEJQ+2118B+7ACEURNhJakuoeIwwtbsgTh2LkyDounaI1mnbUsp1gUpqnhVsF1yO6prd0IRPwmWBBpGsJG3uGE5IkjJRXICcpLFno8nn9Dhxfu/QMZxJJ98XdRhB/HlkEhc90MsyrUl+Peiamw4JMfcMdUYphVRX2HEv35JxopaGQS5CVfPzMJt/ewIJUWYuppQvL06CZmD0/DiMDuiPAfx8wQpDm4djoeOSjHqnCz8cXg9+qpJHsupwY+bBuHVLCJTqRm3L05HXJoR6mFlmBlOiso2Hb7ZOAhv5qjomhIgUdbimnNzcEuyFdESCXKy+uGetTEogQOTxmXh0dEmxEulyM+LxbMbE7DfrsamI2rcM7oSfQ9pkeXzSJ0YO6wejpzBOMx6ZAoTbpiZjasS7YggkVYL1e3VtQOwqk4KaWgB3p9jx2e7pLh6RikmuaNw03+TcdjTdDV2330aGMFZS7AjbzxmTumL8s0ViB4gR87hSoIxII+9+9DoRMlM8JOp2XrUUlhk+xC35hBcA6ehZHg8QiqyoGBxGNTkfdURKoIK5nETUS3NpFgKW6GSRqP8vNGoqCEljnwrvLFjUTJWB93OXxFXYSfRSSUFgaGHRQxJE1nzIZdGoWKKH7k13pzeZi25hr4SI0pn0jko62dBxK9roEMCimYmwZxBROUg5WA92dRHjejUzYiQ9kHRbCpXm42IXSmIQCyKZw+ARUfCmNRdcZKIpot05OxFOxC/zgn78HNROjQS+m1Eln54eSyF2LdjH3Jq6YazHsDT116Bp/32tyy2XPQs2pcq5XtExN2NmpxPkLiTpKOoTqJ+CMoWTwU2f4F+h6rh7TMbxQsXQfr5lzDUUU7ScFjP0SP66zcQbdWhfsFtqLixD7TLv0DflSZ4E2eh8LILUHfsMxhqWcnUxT9nALRf/wf9ytxwD7gAxZdcgZrKjyi4Ttc9iqUhtbg1Ohl3fTUIuV4b5l9wEI9OrUbKCiN0g3Nwhy4Kt38YT/s8iAyzUfQzJSp3DsZLcftxQ/YI3HJA4yMoEqNCUXEMnj46GGk0zNBn2GF8Mr0Qa/IHYh9rYpkdl4104Q/Lx+MvZhEDRh7GRzPysbFwEPZ4rFhwQRpucifgd5/EINPjQixdm2UeD/qOTsPzAzV48n+TkGJzYO7sQ3hxhhrXro1AWX40Dk0pxNzwBLxTKYNEU4PLYqVYu0IHK2sTtxJ7jyRj9To9KmDDxXMP4sGJJmxeG0ZrJMMVVoE/jY7GP5eOx4NEes5GUVeGfnemNo/YDppCgonFmSUQkqbitvuuw2XhudhV6K8M28H8euLhQkMsBUnJUUSnV1H33AN5LV2VUpIYZ/eyNpxkwi1QMbljfR/URJgRvj8XauYV2Kugq/LCHaai+Abk2Q2LhuTYfoSX01ge7Za4HOShkVpuhJJELhWonTwSrvxGz62R3BqUfMkrqauAssnTkEegZpAG2r1HoXPpYOmTALetkqJ1UfdDQ6KUMjP0BzKhIfKElNSDYSdduExofRLoJKJJdZCw8UIm0hlOUcBy9iOiiA3ouSGrp5OUqoa60Zam5K1KxetPvoVlhU1GNO3p2C/rIXn6nAO7fR/CjlRS/UnSs3AvdOZIqoeucRLHBfn+XdDW013kMUGTVk6K0kcRml7D/FlISjKorlq4dE0U7IUkeztCyKNmWnmyrG0ILQ+lgDmGVpNCoqjHtKc+Qcra77Hxs7sweewN+HzVD7T+OV6b244A1R4Vlu2LRB6plApeDbalayhSmg1h5LHVm9g4ahUWJ9fBKJGiskaPqhNISwmCFBWl4UizUV+IlouKSFJe4oCBdY18SYKDB+OwpZ757zLk5EUgh0gvjjwrqbYWl8bI8WVqDNIcUnjcKhTWkxgpxeqYPcyG7D0J2GKm257s23SQggvFV2AwTX55rWH4rsSDCwfTtUoTKJEJZRhpM2JVZUOhgqjC4aIQVDKbqZ67yVsUtA6oG59XAg01rEzpi410nTq80m4ZS2xCx/+36Qrw39buZXnkGFwxyYYVn32NEvJGJiyYi2tnV+H91YWwN96A7c6spx4o0VA0KSc0eyroUqPbi92gGhpPctHNSaGpmEy4x17sC/Tsjo8iT6yAYiXQQT4Kk8KroIuUblSBYilY1SRZXkZdWX/sfLEQqGuiGUDqvjaEsohY/vvJK7RHkJpHEQsU05DEEJJCV5My79TZsDitUJQUIGoLBaihLoMnlOwhb0tPZTJbWRwHj60Y+jpGTGQ/6267a6BgZCcnb09lgb6AusJUJvNW3SFKImYbdf0aq9BYpv+PqBnVri6q/zkty3RThmjhjZmO4t9PadxMdxEFglD4gvMw18ANaT3rJ5DFZJdAEcngsPrk0n0bibIFVrnmRARnIWn1pnXRAbnNTZ4iPVhoW9N2gRSKtzx1C6bTNmnCIvy7uYvadBc3HdmUUZtfjwwl9qZWIGwpc5FmWFlQbRN5X7esKcHt49OxbIYEW/b2wyv7wlHGcGyTRKkF54/Nw7VJRI4Md4kLA+WkxtxcvAQmRlq0z5eIdFg92H6Z0oEQUm8usLXY4TtG4kY8RSiaOGsfNp/XcBqLJKT2hEDNDiWC2ntYD/XMMgzeJUfycHJejiUjh+AmvWkoQypx/YQSzI6khwv1EGQaO3Q1jfmwH48cGZZmBvbb0b2LARFcaL++UBduAYXQpIYsx66NhzDmsmREKgpRcLaEDyQ1Wzup8+qt7MajJGhgTdRAWkr6aCLJjkfQhVnNZMIFuNkNSl6ZtOmuorEzS4gbKuqHCIoYui0pOpazDXModLCrrNCn7oCWxpAqBhhh2FtO45yNFzdTCiZd8AYl34ZtooJuXFIHjl+fRk/jxuPINCZv7ozQQFLVpN3GImeRlltNjk9JmOJyUdwI8gaZki+7sClsoIs8B31T8BqpHpZYBUmR1/nGWX31Pc5/7e2itj61yU7yHs1EoIXrEP9lqm8c0P84UTA0rDIM250oLpmeYr42HU+z0k7y7oQi8uiatnXRbyte9cvT55UVJeD5wji8EV6GRy/OwD8so3HvMcK52TC27MHAMcfwdLIB/7d0CHYTYcoM+fj0Ml9fuzlHv1Oat7EFt1MBM11HCWq6jsiDa04Uqa3ELseGTWPwh+zfThowrjSVxiDFm4VL+yvR16DEsmwNPVRph8SMq+Zm4ZKSgbjr23BU0IM7fvgBfD6wOXffQluuFim2iJKGIZwn8FRbn3161trQfMcKMVfWQjFwMPrqyCUl/yWyXyL05iowmf6zIfleAWEempy8KIqHINKT0540EjVaCp+XS5MOjHwMdIFWsS6nF7Ja2haaCDNNIIgSLeqHj4C9LpMG7Akwez2RoB71sXo6ki50hYbIhZ6duki43NXUlaVZUgqqLIklGXKNX7NpKQCzYIbabwZXYqmBVBUDC8WAYF1Yj5ZImMIN+rqc1M+RVTW+bsICUbMJkMqmdRY8hrrDzEukO8htoLE/OUmdGygfOtY6ZBTqhWKEU3e1lZdJ9kqME3Df4/diQXxHn5k0iE4PB29sJI0/sauGrqTc3SSDPxFVw2nCgLwMRszu8Cg45Wx/ZxIRXP8pqIslkqOA2G4aUqkz1kKbU/ubenQm91OdwyYktCF1SKJxCfI3YanTIcNK0vMsXBnZQ1EcERVNQbWp/r5jdR446vTItjPPzIkhyVUY0E5YPWYDfqp0krdVhiQZBRAngok1kBS9R411x1QYPjEfM0Opx0CsKqFua7KR4nI0MawzBEvzBJw3qQT9qqKwqc7XIPTQ9tDEAlBcpkUVPfgEuRmzB1uhOVnFQyfhuaUrsfuHhzGVpPK7K7UTtuObZ8/biiX7zsMlt96Myygnd0UGVv90FDV+XsPxz+wtW8kDollIxaFDUMVORe446r7V00D+tkPQsW6okuKQUpdBXcdiKRCplR9GZO5YVM66CJUSiqVQmIFoNltJeImOMkTuC6NI9jOQM5ZmwmgG1bBlHzQG8qis2eTJEGb1RTBUJ6MmKRShB9l4E2FOXpbHXtYy/sagrc9B5LFQVEydg1qKziWpK0HYjgNQijRgrHLQ6yyNYQtpAoTFSVWZGsZNRV932wtlOnufTw5XhAqyjExIBpBNUxSQ1BTAuJXCFbqobk3dI1YeJam2DyZOOwfaHz/GiqKOPOHo9ZodW6BctAD5f7wIio2fIy71CKK+V6Fq1lX0gjQFwyaPRFq0D8ZlaynWakN5HfvfSfUohOu8O5CbyPAsgm7NdzTWSZm1qUdTvp7CpbjzbrbWeJM37ejkrzq8FH8/vxJD6UFjp3ixmdmJeDZN7RvLPLg7DvvJQ1p1dzb2b6NZ1L0JWH9hHr66rgB19JLj7mMR2FhHM8jtSIKoxQ8/D0TojFx8cAfFsKXYtVlHk3D3hijkHBiMP0uy8eBlO/CKmqYynErsPDAAf65UEo0yKGRIPxYG0+hyFGyl7jM1c8NFpsP/thvxzJQD+GE8TabRrO3KTAMK+p3EIK8D9TQsYBVtcLAo4t2UuOBlNwEf7MWy11mqZk6A+9AmxJT33PEGFvvBdsldqLR8i4T1Ja3HL4O9EXqRfVwPrhc1Zq+oiu/dOurakLfHE0egpyLgN5jTU6vA7T4dCLDZVFdTnNbTUQDPkyNwBhAIaAzuDNjHi+gmBCSV+9BvHSu8a8aguqkaNK7kgOanN9HHV5WeXZfuwrAnl9utBOew06dKKhqY54kjwBFoRqC7xquaDehFC7yL2osak1eFI8ARaI0AJ7jWePA1jgBHoBchwAmuFzUmrwpHgCPQGgFOcK3x4GscAY5AL0KAE1wvakxeFY4AR6A1ApzgWuNxVq+Jgg4151+Ionj2DetvP6/xRo5F7gVDYWMfqnYikXYFTOfOoU98SEboOPl3Ikt+CkfgpAgE9JqISFI9/afMwsKJ8TBILDi2+Rcs3VlGgpdnz/tG7D71xgyF1ZkOfU2joshJIQ/inUweSUninPThftuP6ZlUkpOEPWEq9imNdKqJ2bevGheUJrpCGr8BZUTnIZWU/Cnxv9GYgzkXcWv3QBMEyrAnajVv1M0omCpH5PL/nNJOUZEMc2QddIXlfvVX45w/vYU350eTcrMFK+67FX9Moa/veeoSBAIiOHW/aVg8oh7L3v8A2WIMzrtiFuZW/IClOWeR6KWghXXa+ag7kEsEx7RNe24SSZnERWI7oT7ppzYPKZ+wpwJS0qvrtNuvMZDyiQVhFvbFfEP+jOikRano/x2tK0lNeNZgKLduhtHEHhZMwKmNHWcIXiZAmhgroLyglmw+sQ1C7a+I2GYltY6TGyaCyH307TCZ3yCF5ZYkkMbfnhdvx9RXSVb8o783vJDcspsvBYhAQASnjQ6DI3sTCkit1otipKbW4rYx0VDn5JFGbO9PIl2qlguvRuWgKJLVvgc5bhvUKz5FVJad5HmmofyCCbCTZJFQlQHDz6tgKCRVXFksKm9cAJEUdd3jxtF+ijlQtBvG9bQ+5UKY+kdQfIJKaDd+j6i9FfSkJwmlq24mgZBdkA+ZDHMMxUww5SJk7XIYs0l+ye/mY15WzLy/4ct7rPjHLS9iR+yt+PBfl6Bvm1au2/EqbvzrZlT5kQfzRN0hYfDayuAaQB5VEhO+LEfY9r0Uj4EISUrCniTjo0xriBwmKsJRM2okTLE6eL0WqNP2IzqzmoSNmMQP6eD1HY7KIRSfgqKtSaozEZ2SBoVP/LMCCvq81avvhxKSupcfSEVkSYOCsVdLZXpNFDCnQVaIkaBI+nrmoaNQnURxKUiBRZW2GzFpFEtBGoaK84ZDmlEKV9942EOYTt1ORFWFoXpYX9hImFOavwexhypIf08Cx7DpJLWdDZ0sHuboUFK6LYMx9SD0tuN3t08Vk4Fd3aIQjdrZj8B65C9Qk4qtY8RTKDVSACDrFJiSBsDjTUfopjcQVhUO0/TfUx3iSc79r8hL2o3Inz+G1nVi4uz9d8/0BervAAARY0lEQVSZqWGbS79jhdqq6cIe3h/R6nIUwYiBAyMQGhYOrZQIrq36Xcey7hFHC+TtaNf9CGf8TbCl/BvxmQ0enGiciNJLhkGx8gP0z7bCNWQhxRSYA/knS6FlujTyWJiHpyHm89dIutyI2isopsAN/RGy5Cv0+94K9+CFKJo3C5a0b0CK13Sf62EfHwP9128jknQPnSMWUUyBSyD75GuKUeB/g3phLU5D6i47ykiR137sY1w//+MTYNn25pLBFUlKurp4emjtRsJKF6zjzkXFYCNCdpSRRn8Y7KQ0azCTErBEj5op42GuOYD4FaWQaYmszh2LquqNiCQJdmfSBJQOciBs2y8IJaVgr4JozyOFnaKLSWoyINX1Q+lkP3IjkvZJrxsMJJ1N4puNkkiMKG3DJ6LSUIjoNalQ6YejYEIS7FnV0FCYPYeOjo/MQ8zWjZAbKODP1IkoKU1D1DayQzcEhVP7EwYV0FI8AYdRRyKXiRBTdyHhoAz1k2YQ4eRBe6i28woj8njqclOAGxMRtITyj4mBO2oOnNtfQ+JuK6wz/omKoQNg2Lgfhn0bUB81CoYV/0SI7zJpi/8JmolvDgiBgAjOkpmCVQmzcMU9t0NqKsDOw2U0xkABK87itmOCis7Bo+Gq2IboHPKw6J88cyc0519BF7gK2kLWXvSJ2q59JF3OngJ0s2ZVoVZ5EKH59T6PTJZ/FHLvuXAxLWnfzUBxBI6mkkR0g46b4kgK9JOvhyVei1BTwzksV+bM1R/8Gn896Ftj/7U/kYdmM7DoXzsQyexg0SBqSRY8XkkhUIhEfbFdq0h6nbz1KBLdVJS0RAOrL4fGMojUiUn006SheBBaqPftItucvvpInSQPLtVRTAIS/ywxonxSHGQHGz23Zg+UYlsQPtLKOhL+JLPZNaRJQHWCC4ZN2VDJQlHXx0j5UyAfIkCvscHDNB4ugJIUYz0yii1BkcfCD+f7uoteijUheikUH8uLjf3pvFAdpjgP1UwdhajTSjapKQ4prTUlFpNh+t/fxD+n0VgjxdQI1UkoJsPlJJBuwa6XH8RDqytaZMLpJFE/mKKdFSDUTE8tKUUoIxVcWcaHiMgpJfNJd05KrW8lDMk9ZjFsPfZjUDIpeF/lmkrlv6cTgYAITvDW48j6pfTXYKJ60EUY77ZQ0InTaXKw5y2huAca6qIuQMEf5jcbK8pdUFP8Bd/sIcUEkFgbRSfpehe8BJiDVHSbcCMFWN9N0HzzuyGhYC/Nzw2K2CSzirBqTy5xqxrS/i4q5HoKPUjhDvP84i9oScbVZieSaIztaiLhTYo74Igi2fCq/Q0im8woEkqkHhoECqXk1UfBIdTAWNVAbs0AkLqxTUuBVwYlQ6QueBSNV/p3r0nkn6J9kSZyVoNasG/ywRgDJxu3O5+EO0nxWFWcgZiDLPQh8wb1FC7wCLQ0FkLatHCRMCiq0qGlLifzBt0hzBvMa4hFS11vp1iN8LLG7jV5hh4tPYgZATcbSPZ3ICaDr4ww6oZaNjZ4nPr+hF8xdEx1mdpNpAhotlAJ5DllVAbVOzqOhipWNdjjX6hf+Xyx6xEIiOD8zWEBfGMHhsNesBPWxvvTf//Zs8wUdCmmQPoq9PkuzRdwxL/ubPCapY5d4xScJtQvQAp5Wy4txaM0n1yrrSNdVJE8NJdIAWp8TyeyjuIvmGOkUBytoxuWxXalwDa5TNqcbl4lBcqhoC3NdVBTGD8KTqOrJcLQkkqth+JONJF1Y+VFii7mRiXCNh4GxkxBbaIeuowW7xMUdMchp9gTzXr39KBQ0vhlyR4kbiVSayZ7IjSBIjcZydtkZOwDk0U2o+hfZRQrwueS0TqpEUsrTT47PCERNOZWC2lj1xfKcNSH0XhiJgWq8cu30dR2/lAgoNgISMvz6cFEHpphKMVDSCPpeJ82LkUq7EeEVwVNjZm6r9S9p9gc8jTm2bUvMZl2JUmOO1l0M546jUCnJ8RYiYImHhPOSYBBLkNY8gTMG2DGrgNVDYEqOm1SDzuRApdKbSxAcjhNtLCLkQLApB+gYbbzUDWQBu19MQWY/HcUDZJ39mKVwT10EuophB+L++CkAXOziryF4tYRuNhEgX7EVXjq0YUYpGp/WQ3jXxTbVUYS6zRYL1JQFsuw0bB48hBeTDPicgp8Q9LmDa93UBBpijHhjabIXUoiO5kBtaMHwFuYhhB6sknsRCrKSJiJYJg9XhWRMWHgIS/KQzLs2nryEtMr4ElKhq3x8cq8NS+RkNtRBZWvC8euAYphUW8BQuMpRisLHkgRvfREgozByE47e92EpOB9XiCTWmcTIBTcwLcuVVN3kYY6q5nH1uB9eolAWTBt1lU2jRwOR30WDFUnf0Cc9EqURpKHRtGlKiqJtCiITWQiTf4cbXiFhlkfOowmabKhZg8heqi5KNCa4CKGZd4dA+YkSZQn4uaPV+LIlndxR/LJvfSTZMN3EQKBeXCCBLqB5+P382i8oSYXW5avxa5qmi/v9FOxB7YJddN1W3fDvOA6islA8QVWfIyYo9sRs0xAxeybkbuYxfJ0kLdBY1tLyyhMW2fqaIf8WDXsl9yHqmg2i5qDkJ+WI8REblIrrAVo4odh+hQr1r+3DOntnsom0gwToN2XAXH4TOSEUfetOpdef0in2UG6IfUUXYu6b3oLBSuh8uR5FLs1ZCzK5iWTt0Z1zj2M2KM0W8m8O4oHEXVIj/LxFyBbToRXm4eolAwgkqJ5VZuoe0mvflBAbJ1nMmriNVDnsXirREKRIRTBvrFLSW4OK0fCYlgUjKMYFgtQKVBM1qo8ROykQEcq6nLS6ybhZA8dCahpNp8mQEJ967SJqRHL7USmRC40+O+guqmOlcI5/kLk6Nk4IMXCSM2lGBUn9qdOGZNBmQiHijy0WjbBQOVH6WjWNt/nQfoeQlEJQN2PjYRXCh2Ny5XNeAO55UsQt34FjRue5DoQ3bDV2yg6oxlW7sGdBKhT7+rWmAxKtcqnB8d04Xg6PgLsVZT6q++EKeNjJOymQDOtCO345/CtLQiIimiUzBoEdUoKwigKfLAmUdb4Htzr99KLvtXBamaPsyswD67HVbcnG3xib6Mn1+p02y5qKeyih96tC9KBYVFUY9yjr+P1OZFQyk1Y0Y0RqE53W3RH/pzgugN1XuYZQYANdblDaTbV3Bh28YyU2rFC2JcMe1+6CzNe6th5/Oj2IcAJrn04ddtR7GXikP/9i96qosS7px1qBwaXIjcF/XN94HXoXH5w70BANnbsBae9JttSvvOVIaWXL/2Tm14A3b99rW/T8HHn++/iyxyBsxaBtvfJWQtEF1Q8oNdEuqB8ngVHgCPAEThtCHCCO23Q8ow5AhyB7kaAE1x3twAvnyPAEThtCHCCO23Q8ow5AhyB7kaAE1x3twAvnyPAEThtCHCCO23Q8ow5AhyB7kag9Xsbx7GGfRisijBiSHI4ksMc2LouH6XuhrfqRYkc/UYkYnSiCoKlDof2FCLTRN8a8ve1joMk38QR4AicaQTa5cEJXjfMpNRg9/s4mb0lru+bgOFaEzauPoJfMoFBoyNhIF0wnjgCHAGOQDAgcEqCY96YvaYOWQVW2PwVEEiGJjpWiqrMGrD4IObiKpSRhliCjn8zGQwNy23gCHAESEym0yBQ9zRU4YHJ1qj/Q/LQNU4pQlSdz7LTtvATOQIcAY7AcRDoPBuRZycnZ83VpG9GfVaPl3T8SYeeJ44AR4AjEAwIdJ7gaAzORX/yphyI8GQUVMDp8e/HBkMVuQ0cAY7A2YpAEz11vP5eJ2qpSxpKsQF8SSpHGIU7MlEwFJ44AhwBjkAwINB5giNZ5bJiN4wDwmGQCdDHRSDabUahhRNcMDQst4EjwBFoR0wGkcK9TZ7ZD33UrAsqIHL+CDjKCrA61QRzfhEOh/bBefOiIZhNOLirEr8JE8BR5ghwBDgC3YTAKV/0FSjOaeovh5Ha1kAacxNo5jRvfxb9tezkL/m2YMGXOAIcge5FoPNd1O61m5fOEeAIcAROiQAnuFNCxA/gCHAEeioCnOB6astxuzkCHIFTIiDbu/eXUx7UVQd4PBTZu03SqJW+Lcfb1+ZQvsoR4AhwBDqEwCknGTqUWycO7jNoYifO4qdwBDgCHIFTI8C7qKfGiB/BEeAI9FAEOMH10IbjZnMEOAKnRoAT3Kkx4kdwBDgCPRQBTnA9tOG42RwBjsCpEeAEd2qM+BEcAY5AD0XglAQnkky5NnE45l55Pf720EUYpPL7mF5hxIjpF+KuB+/GPRPDIGE65kGavAmxKH13FKoHS8DiTBwviaIU7gEjYNdyTbvj4cO3cQR6GgKnJDhWIQFOVJdUwuJtc+MLItx1FSiu++37bcEEhAgp7HOi4NKrYb0iEu4TvRyjiIZ59jQ4tO2CJZiqyG3hCHAEjoPAiW715kMFIjFzQQZ21Skwemy/5u2+BUc1ju6vh7P/SMS33hNca5FG1I8XoFxSCu+8GJiGV8G439Uq+pcoi0bdVdfDHG8Abn0UFkcxtF9+gZAKKVyj56Fm1mi4NCIk+btg+Gkt1NVE6voxqLh1JJQ762GfOgourQjZ0XUwbLPDMnc27HEhEM3Z0C37FqFZZkDZBzW3L4CwOwuuiRPgDFNAUrYP+h9XQlfmaGVPcAHIreEI9EwEer2rIooSOM6PhquuGiFrihCyl4LoXB4FZ8MHFM2tJrjLEPLdUihNpdB//CLiXvsUIeUeeAfMR+XsUKi/fhHxz72M8Pz+qL18GlyNjwYxdCgsMZkwvvE04v/1DeQJC1B59RAolr+BuGefRcReLZHdhObjoUyAZbgDIR8+j/hnX0ZYdgLqrp4FRxt7mg3jCxwBjkCnEej1BAeDAfXTlZBvKIfC6oLqpzLIoqNQN1ZxwrG4FjTVcJwzBMLhDdCV2CGIdij374I0bDhsoY0M56qAJjUdMtZLr8+HutgCSeY2aMrJIxMdUGRkQqKMgEfelKsFyu27obR6SW7KDNX2jZCrB8NuVDQd8P/t3b1rE2EcB/Dv3XlJc00jRq0dmkUQEYeCL4MvaAcddCkIdXLSIZOIOLn6B4hQFweHuhWcRIuioNlcFB0UIYpv1LcSrW1qrne5nL8LxtyiF0IeHpp+b7nL5bnf89xn+PG8kDw8U4ACPRJIHKL2qB4tYaK1BP/ACFaMBWx47MKU/7AL5+alF7cF3yfk/vMPGHD/0zQzgyCbQX37aXze1VqYkBioYCAl85GePBvUYLqxOUj5va1RleTWChvKHhVGbLPYwINZkzLSlubhL8HybNS5G1lLjGcK9EygrxNclENSsy8xOtv2MlCHc+0ZnOatv2moXSB+1ViBtfwL9qNpDJe+NBNk/OswG//U4bWVRuDY0nuUHmHUQDsnvTsfqdb2ix2GYTEKUCBZoP+HqMkG7RINF1bgwBvONoevYSjDySdlNHYfRXX0zz1rEP6IDDll8aW7YxDevj3NldrQzKK2fxx+7RUyFb+7cHyKAhT4p0BiDy5MF3CyOIGxnAlbNpfZeuEsquW7uDIjq4MHJ1Ec34yMtQ7W2ClcOvwN96dvoiST86vykJXTodJrVI6dw9zxrxi6cR258h1senAECyfOYzEvKwHeEuwX95C/Pd/drtmBDG/fOFg8c1FWUdMwPz3F+pmHSEXD3YQO5ao0ZaMpoFHAKGzb221XpONmu8s/sWPnIbx9F9u8oeOn+6dgmCrgR3ES4a2r2Pg+ymg8KEABlQIcoqrUZWwKUECrABOcVn5WTgEKqBRInINTWflai214H5GfurzWXpvvSwFtAuzBaaNnxRSggGoBJjjVwoxPAQpoE2CC00bPiilAAdUCTHCqhRmfAhTQJsAEp42eFVOAAqoFmOBUCzM+BSigTYAJThs9K6YABVQLMMGpFmZ8ClBAmwATnDZ6VkwBCqgWYIJTLcz4FKCANoHfbBpf97PswhMAAAAASUVORK5CYII=;" vertex="1" parent="1">
          <mxGeometry x="378.02" y="450" width="312" height="233" as="geometry" />
        </mxCell>
        <mxCell id="1W6Do4FqAaNzwl3g4o6q-7" value="" style="shape=image;verticalLabelPosition=bottom;labelBackgroundColor=default;verticalAlign=top;aspect=fixed;imageAspect=0;image=data:image/png,iVBORw0KGgoAAAANSUhEUgAAAOIAAABOCAYAAAA9zspCAAAWdmlDQ1BJQ0MgUHJvZmlsZQAAWIWVWAVYlE+3n3cTNqile4mlu7u7O0Rg6e42QFRUUEpKQgEVRBSQEkElDBBJEUERJURAUTEQBJS76hW//3ef797nnud59/zes2fOzLxnzpw5AwAbghwREQKjAyA0LCbK1kiX19nFlRe9BNCAAWABO2Ake0dH6FhbmwMK/eH/pK9PAPSTj0n8tPU///9fid7HN9obAMiagr18or1DKbiZ8mx7R0TFAABvoMj542MifuLHFMwYRRkgBS/9xP6/8fZP7PULI+h+6djb6lGwAABUODI5yh8AnDRFzhvn7U+xg6P0hWII8wkMA4DBh4I1Q0PDKZz1AkVHmKITQcEDFKzs9S92/P9h02vXJpnsv4t/z+UXUekHRkeEkBP/n5/j/6bQkNg/fZAoDy4gytiWwinjgiaDw812cZiXpdUfHOjzS/8XDog1dviDvaP1XP9gH7K+2W7bEEvzP9gv0NBk106Mif0f7BttYPcHR4Xb7vblF6Wn8weTo/72GxvssCsP8DXZtZ8UYO/0B8cFOlr+wdHBdmZ/dfR25VGxtrvj9w0z0v3br+Hu3EOj/2W+gSa7bWMC7I13507+O37fMJ2/NqOdd8fm46tv8FfHYVc/IkZ3t6+IEOtdfd8Qo115dJzdbtsYyoL829Z69xsGkU2t/2BgDgyAPuAFeiAQhAFfEArIlDd9yls0iAAhlLfEGN+EmJ8T0wuPSIwK9A+I4dWhRJwvr0mYt6Q4r6y0rDwAP+P39/L4bPsrLiHm4b+ySEp7VRUAYGV/ZWQxANrFKWFz5a9MQBEAbAkAHfPesVFxv2WInz9IgAG0gBGwAW7AD4SBBJAFikANaFNGbwqsgD1wAe7AGwRQxh8F4sF+cAikgQyQDfJBMTgHzoNL4CpoBNfBTdAN7oOHYASMgykwAxbAW7AKvoItCILQEB4iQGwQDyQIiUGykDKkCRlA5pAt5AJ5Qv5QGBQL7YcOQxlQLlQMVUA10DXoBtQNPYBGoafQLLQMfYI2YXAYDsYI44KRYFIwZZgOzAxmD9sL84dFwpJgR2CZsCJYJewKrBXWDXsIG4fNwN7C1uAAjoUzw4lwCbgyXA9uBXeF+8Gj4Afh6fACeCW8Dt4O74WPwWfgK/BvCBSCgOBFSCDUEMYIB4Q3IhJxEHESUYy4hGhF3EWMIWYRq4gfSDySEymGVEWaIJ2R/sh4ZBqyAFmFbEHeQ44jF5BfUSgUM0oIpYQyRrmgglD7UCdRZah6VBdqFDWPWkOj0WxoMbQG2gpNRseg09Bn0FfQnehH6AX0BhWWiodKlsqQypUqjCqVqoDqMtVtqkdUi1Rb1HTUgtSq1FbUPtSJ1FnUF6jbqYepF6i3MPQYIYwGxh4ThDmEKcLUYe5hnmM+Y7FYPqwK1gYbiE3BFmEbsH3YWew3HANOFKeHc8PF4jJx1bgu3FPcZzweT8Jr413xMfhMfA3+Dv4FfoOGQCNJY0LjQ5NMU0LTSvOI5j0tNa0grQ6tO20SbQFtE+0w7QodNR2JTo+OTHeQroTuBt0E3Ro9gV6G3oo+lP4k/WX6B/RLDGgGEoMBgw/DEYbzDHcY5glwAj9Bj+BNOEy4QLhHWGBEMQoxmjAGMWYwXmUcYlxlYmCSZ3JkSmAqYbrFNMMMZyYxmzCHMGcxNzI/Yd5k4WLRYfFlOcFSx/KIZZ2Vg1Wb1Zc1nbWedZx1k42XzYAtmC2H7TrbNDuCXZTdhj2e/Sz7PfYVDkYONQ5vjnSORo5nnDBOUU5bzn2c5zkHONe4uLmMuCK4znDd4VrhZubW5g7izuO+zb3MQ+DR5AnkyePp5HnDy8SrwxvCW8R7l3eVyEk0JsYSK4hDxC0+IT4HvlS+er5pfgy/Mr8ffx5/D/+qAI+AhcB+gVqBZ4LUgsqCAYKFgr2C6yQhkhPpGOk6aUmIVchEKEmoVui5MF5YSzhSuFL4sQhKRFkkWKRMZEQUJqogGiBaIjosBhNTFAsUKxMbFUeKq4iHiVeKT0jgJHQk4iRqJWYlmSXNJVMlr0u+lxKQcpXKkeqV+iGtIB0ifUF6SoZBxlQmVaZd5pOsqKy3bInsYzm8nKFcslyb3Ed5MXlf+bPykwoEBQuFYwo9Ct8VlRSjFOsUl5UElDyVSpUmlBmVrZVPKvepIFV0VZJVbqp8U1VUjVFtVP2gJqEWrHZZbUldSN1X/YL6vAafBlmjQmNGk1fTU7Ncc0aLqEXWqtSa0+bX9tGu0l7UEdEJ0rmi815XWjdKt0V3XU9V74Belz5c30g/XX/IgMHAwaDY4IUhn6G/Ya3hqpGC0T6jLmOksZlxjvGECZeJt0mNyaqpkukB07tmODM7s2KzOXNR8yjzdguYhanFaYvnloKWYZbXrYCVidVpq2lrIetI6w4blI21TYnNa1sZ2/22vXYEOw+7y3Zf7XXts+ynHIQdYh16HGkd3RxrHNed9J1ynWacpZwPOD90YXcJdGlzRbs6ula5ru0x2JO/Z8FNwS3N7cleob0Jex+4s7uHuN/yoPUgezR5Ij2dPC97bpOtyJXkNS8Tr1KvVW8970Lvtz7aPnk+y74avrm+i34afrl+S/4a/qf9lwO0AgoCVgL1AosDPwYZB50LWg+2Cq4O3glxCqkPpQr1DL0RxhAWHHY3nDs8IXw0QiwiLWImUjUyP3I1yiyqKhqK3hvdFsNIOSgNxArHHo2djdOMK4nbiHeMb0qgTwhLGEgUTTyRuJhkmHRxH2Kf976e/cT9h/bPHtA5UHEQOuh1sCeZP/lI8kKKUcqlQ5hDwYcGU6VTc1O/HHY63H6E60jKkfmjRkdr02jSotImjqkdO3cccTzw+NAJuRNnTvxI90nvz5DOKMjYPul9sv+UzKmiUzuZfplDWYpZZ7NR2WHZT3K0ci7l0ucm5c6ftjjdmsebl573Jd8j/0GBfMG5QkxhbOFMkXlR2xmBM9lntosDisdLdEvqSzlLT5Sul/mUPTqrfbbuHNe5jHOb5YHlkxVGFa2VpMqC86jzcedfX3C80HtR+WJNFXtVRtX36rDqmUu2l+7WKNXUXOa8nFULq42tXb7idmXkqv7VtjqJuop65vqMBtAQ2/Dmmue1J41mjT1Nyk11zYLNpS2ElvRWqDWxdfV6wPWZNpe20RumN3ra1dpbOiQ7qm8Sb5bcYrqVdRtz+8jtnc6kzrWuiK6Vbv/u+R6Pnqk7znce37W5O3TP7F7ffcP7d3p1ejv7NPpuPlB9cKNfuf/6Q8WHrQMKAy2DCoMtQ4pDrcNKw20jKiPto+qjtx9pPeoe0x+7/9jk8cNxy/HRJw5PJifcJmYmfSaXnoY8/fgs7tnWVMpz5PP0abrpghecLypfirysn1GcuTWrPzswZzc3Ne89//ZV9KvthSOv8a8LFnkWa5Zkl24uGy6PvNnzZuFtxNutlbR39O9K3wu/b/6g/WFg1Xl14WPUx51PJz+zfa7+Iv+lZ8167cXX0K9b6+kbbBuXvil/69102lzcit9Gbxd9F/ne/sPsx/Od0J2dCHIU+ddRAE55YH5+AHyqBgDvAgBhBADMnt/n6/8mOOXwAaNwR0gSegsrg7sjRJBo5EfUMnqC6iX1LGYdh8STaMxoY+jK6ScIWEZNpiTmepZFNlF2Mkch5zA3kkeB15eYydfI/0jgPQkmRCNMK4Kl7HzfxN6Jz0qMSd6RapG+IJMte0AuSN5RQVtRVImgtK28oDKg2qxWqn5YI0jTVktTW1yHR5dZj06f2gBh8N1w3WjVeMlkxnTSbMj8nsVNyyarq9aXbWpsL9tdta93uObY5NTk3OzS7Nq0p9Ht2t5693qPRs82crfXgPdTn9e+X/x2ArCBzEF8wWIhCqFaYSbhDhG+kfFRp6KrYjpjJ+M+JlAn8iYp7bPc730g4WB6cmFK+aGK1HOHi45kHU1L23cs8rjfCdd0ywydkwqnhDM5sxiysTnUudjTdHms+cQCsUL5Io0zBsUWJQ6le8q8zwafiylPqciurDjfcqH/4suqL5eoajgvS9XqXnG46l+XUH+8oeBaZWNtU1Nze0tn673rD9oGb4y2j3dM3py69fL2q863XWs98DtMd4Xvqd+37vXui3+Q3l/6sH6ge3B0aGb43cja6Oaj7bGtxxvja08+TryjrLb5Zy+mJp8/mh580ffy3sz92f65R/PTr5YX1hahJdwy6xv+t5IrKu/03pt8MFvV/yj7ieXTp8+9X86sBX9VX6dZf7lR/y1l02aLuPVxu/t7zg/PHemdnX/4XxLJi/xM8f8bqjnqj1gMThBvQBNAm0XXQ/+ZIMHowXSG+TErns2C/ShHF+dXbjEeD96TxGa+J/xfBGlJnEIkYaIIqyhWdENsTnxIol3yvNRJ6TgZT1kTOWl5FvnvCq8U+5XqlfNUklTd1XTVSRpUGm81R7XatM/r5Oim6sXrhxh4GToamRlrmsiY8psxmaPNNyzeWD63GrXus+mxvW3XYd/m0OLY4FTrXOVS4Vq8J8/t1N5j7qkeyZ7J5FSvdO/TPqW+1X4N/m0BXYF9QcPB4yHPQ1+FrYRvRKKiWKLFY3RjnePC4g8nFCZeSerc92j/qwNrybAUzCGaVNxh1OEfR74cXU6bPjZ6/N6JtvTajLMns0+lZsZnhWb75/jnBp2OykvKP1yQUXi6qORMZXFNSUNpS9nNsz3nHpY/qXhVuXYBdZG1SrRa/ZJljcfliNqUK9lXy+vq62819F8bb3zZtNS82rLRutOGuoFvZ+xgv8l7i3RbvFOuS6PbtMflTsjd5Hun71f3tvcNPpjp/zSAGGQeIg0rjOiOmj+yG3N67Dru9sR9wmPS86nnM/IU+Tl5mvyC/NJ7JmA2Ym7/fPqr4oXa1x2LA0vTy+/ebK/g3rG/J32QXJX6KERZATufZ790r5V/PbjutqH6jfXb182xrYbtU9+Dfhju8P+b//9z/A8RMIzqTNGU+P9AiX9vjhLOx9x4HnXeYGIh323+OYEfJHohorCoiIiokBhRnF2CTpJaCkh9ll6UmZTtk2uVr1LIVzysFKm8V8VMVUmNX51GfUNjXnNEq0u7SeeSbrleiX6+QabhMaMU4wSTCFN/M3dzewsTS00rRWspGxFbkp2APZ8D0ZHHidOZzYXZlWEPzg29F9r73f2bx7rnBnnLG+ZD5Uvrx+zPGUAMJAWJBkuFyIYqhKmEa0UYRdpEeURHxKTE5sRVxF9L6EocTpre93b/xkFYMiYFd4g6FaJk0VdHHh/tSas/VnY8/URsOjnD4qTyKf5M2szvWe+y53Ke506ensibzH9aMFk4WTRx5knx45Kx0tGy4bOD54bKRyueVE5TMt3qxc1qxCV8DdNl7lrSFcmr8nWq9VoNetf0Gw2a9Jt1W7RbNa6rtindkGuX6hC7SbrFd5u7k6OLo5u7R+COxF2le7r3LXqd+rwehPTHPUweOD6YM1Q0fHakYrTyUflY6ePC8ZwnGRNHJg88jX8WPhXw3HPa5YXdS+sZm1mnOa/5yFepC/mvLy12LA0uz7z5tIJ4x/he4IPsqsZH/U+Gnw2/6K1pfVVbV9yQ+Sa2Sdri3Wb7TviB30H99P/ve5afhKLUlBcoecLhGADmOQCcVQOAhAEARwOANR4AexUA080CMDk5AJM+v5s/IErhSQ3oACsgAjGgRKmPbYAHCAfJlJqyErSAB2AafIYwEBFSheyhcCgdqobuQwswFEwYZk6p9Yoo9d0KnA1uDE+C18OXEAKUSu0CYgkpSanFelC0KE9UE5oK7YnuoGKlSqB6Rq1FXU2pkw5i3mE9sKM4fdx1vCj+LA0TzSlaKtqjdEi6Y/Q4+tMMXAw1BCVCL6MT4yJTIjOWuZxFiWWENYQNw1bLbsn+haOU04jzM1c5twX3Jk81rwMRSWzlC+In8j8TyBe0JRFI40LFwp4iQiLvRJvEEsW1JFASw5IlUgHSyjJYmZeyrXLZ8iEK5oqyStzKBBUaVTo1FnWihpSmlpaddpDOEd0KvW79eUO0kaixmUmg6VGzcvMOi0nLdWs2Gw1bX7ss+w6Ht5S1bOWS6tq8Z2Evs7uhR7xnLXnGm83HzjfHbzSAEOgcVB68EqoWlhm+GGkQVR2Dj42Pe5Vgn9i7T2N/60HZ5IZDMqmNR+SOXjsmcbwqnTuj6BQhMyebPifvNHteZYFEYccZi+L50uSz/OdGKo6e17kIr3pwKfeyxxXpOnj9s2vNTTktkddtbkh3YG/O3W7pSutxvit+H9Y79aD1Yf5g3LDrqO6Y9LjwhOxTh6mi6a2ZuLnthWNLLG+uvDP88OrTsTWp9eebmd/1f+0ff/zP8sv/ihT/WwN3EAoOgExQDprAfTAFViE0xA0pQdZQMJQGnYe6oRkYBOOHGcKCYbmwDthrOAGuC4+FX4a/QhARZMRFxApSHpmMHERxocJRd9Gc6Dj0GKWWzqP6Ru1J3Y9RwlRh2bCncHBcEu4jPhA/S7OHZoLWkXaCbg/dHH0w/TrDUQIzoYZRk3GMKZBph7mQRYZlkOJ9GrZGdmcOGEcdpxsXnquTO4pHkGeSN52oQfzEd4mfLMAlMCVYQnIXEhB6K9wikiJqLsYiNi9eJ5EoaSjFKLUg3SaTKesrpy3PKb+lMK14h5LPKlSKVUvUKtXrNG5R9rPX2ju6HHqq+m4GhwxrjEaNv5lym2mZe1gcsCyzum09Z0ttJ2vv7nDK8bbTZxcRV689JW5j7hgPHc8E8jWvtz7Cvv5+Nf7vAuWDDgb3h7KFBYd3RbJFxUVPxKrHXUigTTyQ9H4/+cBksk3KYKr54cGj1mmPjtueGM2wPNmfaZzVm2OSO5TnkP+iMLhos/hkKbGs45xL+Y/K2gvuVSzVj2vya12vEutWGm40pje7t8q34W8sdnTeyuv07Za/A+4O3i/tC+3XHmAZXB0eGK0dyxyPm/B/6j+VNF398u2czqvKRcxy7NuF966rjz5brY1sOG6+/B76D///5/h/8Sv++X7Ff9iv+L9HiX8kTAhmBouAFcI6YW/gzHADeDy8Fj6H4EK4IooRz5FEpD+yAbmNMkWVoD6gDdBl6A0qB6oWahbq/dTzGAtMO1YYW4SjoqyAFbwH/jGNOc19Wl3abjpduvv05vTjDGSGD4SDjDSM5UyyTPeZ3Zi/sGSxirMOsIWxE9g7OHw5GTi7uCK4eblHeA7xyvK+Jpbw2fHT8D8UyBC0INGTngpVCoeKqIgiRUfFysQDJZQk0ZJPpeqkj8q4y6rKscltyr9Q6FVsUapVvqRSp9qhNqA+q7GpxaytoOOse1CvWn/MEG4kZ+xtkm3abjZnQW0pY+Vqfczmuu2yPbeDk2Ou04gLnavdngK3SXd2jz2epeQX3vw+Qb7N/lCAdWBl0HqIVWhtOCYiNHI8WjemMU4ovjyRM6lkP+eBymTRlJZUvcOPjwakbR/PTidmNJzSyHyQ7Zjz+nRCPq7gQpHmmamSfWXcZ++Wh1fynH9yMb/atUbw8tqVvrpzDYmNTs1KrRxtsBsrHRO3ujuru9PueNyT6YX6RvrLB6KGjEZ4Rr+NPRlvnSh+emgqbNrrpces/3ziwunFpuXJFfBebNX108kvPV+3viltxX2/8dP/v+/mf+UPOgBySbBmIcG+iy+J/34v/vve/l9qk3/n4Fd2+Uk/s8svTsk04L8ARptjEDUdW8wAAAB6ZVhJZk1NACoAAAAIAAQBBgADAAAAAQACAAABEgADAAAAAQABAAABKAADAAAAAQACAACHaQAEAAAAAQAAAD4AAAAAAAOShgAHAAAAEgAAAGigAgAEAAAAAQAAAOKgAwAEAAAAAQAAAE4AAAAAQVNDSUkAAABTY3JlZW5zaG90VszCsQAAAu5pVFh0WE1MOmNvbS5hZG9iZS54bXAAAAAAADx4OnhtcG1ldGEgeG1sbnM6eD0iYWRvYmU6bnM6bWV0YS8iIHg6eG1wdGs9IlhNUCBDb3JlIDYuMC4wIj4KICAgPHJkZjpSREYgeG1sbnM6cmRmPSJodHRwOi8vd3d3LnczLm9yZy8xOTk5LzAyLzIyLXJkZi1zeW50YXgtbnMjIj4KICAgICAgPHJkZjpEZXNjcmlwdGlvbiByZGY6YWJvdXQ9IiIKICAgICAgICAgICAgeG1sbnM6dGlmZj0iaHR0cDovL25zLmFkb2JlLmNvbS90aWZmLzEuMC8iCiAgICAgICAgICAgIHhtbG5zOmV4aWY9Imh0dHA6Ly9ucy5hZG9iZS5jb20vZXhpZi8xLjAvIj4KICAgICAgICAgPHRpZmY6Q29tcHJlc3Npb24+MTwvdGlmZjpDb21wcmVzc2lvbj4KICAgICAgICAgPHRpZmY6UmVzb2x1dGlvblVuaXQ+MjwvdGlmZjpSZXNvbHV0aW9uVW5pdD4KICAgICAgICAgPHRpZmY6UGhvdG9tZXRyaWNJbnRlcnByZXRhdGlvbj4yPC90aWZmOlBob3RvbWV0cmljSW50ZXJwcmV0YXRpb24+CiAgICAgICAgIDx0aWZmOk9yaWVudGF0aW9uPjE8L3RpZmY6T3JpZW50YXRpb24+CiAgICAgICAgIDxleGlmOlBpeGVsWERpbWVuc2lvbj4yMjY8L2V4aWY6UGl4ZWxYRGltZW5zaW9uPgogICAgICAgICA8ZXhpZjpVc2VyQ29tbWVudD5TY3JlZW5zaG90PC9leGlmOlVzZXJDb21tZW50PgogICAgICAgICA8ZXhpZjpQaXhlbFlEaW1lbnNpb24+Nzg8L2V4aWY6UGl4ZWxZRGltZW5zaW9uPgogICAgICA8L3JkZjpEZXNjcmlwdGlvbj4KICAgPC9yZGY6UkRGPgo8L3g6eG1wbWV0YT4K+Qvc6wAALDtJREFUeAHtXQd8FMUX/q73Sw8BEiChSO9FioAgRbqCgoKgSBFURFA6CIo0FVAURBRBpCgC0qv03kOHkBBIIfVyuZLrt/83d+kEFYz/AO7wC9d2Z958M6/M7L5vBWGVG3HgC48Aj0CJIiAs0db5xnkEeAQ8CIhFIjEPBY8Aj0AJI8B7xBIeAL55HgGGAK+I/DzgEXgEEOAV8REYBF4EHgFeEfk5wCPwCCDAK+IjMAi8CDwC/0gROU6NZnM24ubFDfisieoeNDm6Qun/7HjsPrERy/uVh4R9wZfHEgFNWCrWdDEgVPjPxpDj3ChTNQVr2pnhi39W12MJ5H2Evu+1C46TomyLlzBi4PNoVbss/CVO6OOvYv/vq7FgxVHE2wT3qbLg146Mu4iJjsXdVAvcBX964E+ikKfR+zk1Tq3fjaisv9f+AzeS7wQOTrRtq0PlyAB8m2nHO89l4dRef5ykvkv8MrGgqxGhKb4YvFOFu1yePJzQjt6d0vC2rxhzNwZio/H+9o4TONC+fSomh+ZHR4DzR4Pw/hUJXIK8evOJ9ki/5cjgSlRWdK9rQpcwO8IUHBw2MaJuqzHzuOKRlr2khCtSETlOhDJdJmDNp8+hrDsNkYf3YK9BhSrNmqDn+zPQrNos9B6zAwnOHLE5FOXs2Bwynl+Goa8u8x74DyYVx8lR/ZW3Mal3Csbt2kOKmNP2/V9ZP/yrt8GLde5gzeprMBdqX6gqh1bdmsCxZx0Op+ZXhOw6pQ40VIiwlxRJqnKggl2OX+x57dmzJNBps9DSR4lf9HkKI/fLQmuZGAmOvGP//B1TvGCMviaGK/tAzi0AV0jeP6/j0flVrM7C2OczEZ6kwfxtfrhC+MnUDlRWC5FGcybo0RH1kZGkSEWEqjreHN4KoUjGhnFDMWZnqscyC/2bY/qq6ejT9nW8WfsQPj6b3Q8XB1XD/lg4qTNalnEjZu8KTPxkLS4YBAjpMRfbZ9ZB4qKh6PnVDViFGtToMQhjB7ZBvVAlrHGRWL/4K3y5NRYWCCDQPIWX3h2C19vXQrivAMb4SPw8+XMcajAaX74WDrk8AvP3H8F8/VG80/VDbEu/F0umgAG12mHg0JfQWn4Fq789A2u+w4TqCmjzan8M7VwasZtX4CsDm/55isRJLBjRwYBGChdC5ALU7ZwCSF0IFAgxt7sZuw8FYA3prcAhxk6dE20i7Pj9jAw2UhyOc6FqZRsstxQwV7TSZzdKVUrHV0/J8eF2Ne4wBaPvQqqkY8FTMozeLvdKRlGam35z5ygfiSPWmPBxRzNiDwbiuyTyqlIbBnXSI/yqPyZfE0EZYsZ7DbNQS+OGUijEjZs+mHVGjlQaj4p10zBapsBRhQXdyjigcEqw87QWhxRmvFXDhvJSARLuqDHruBoxDgE0YWn4ppoM6/QW9Ipwwl8gwoXrWnxxXo40kit/YR5P5mPB608b0DGQgCBvt/ecL5ZESwhnN2rWNqKBUYt3jqqQmH2uwyTDORPIuBQ0eByZnuo19BhWxY6ycvKkDNPTflh8SwyHwIX6tTMxrKoNIRLAYRVj90l/fHdbgFIRRrxXLwvVlSSZk2S95oOZ52X3GNv8cj/K74tURFmZemhYSgp78jGsPuxVQtYJV/pZ/Lo/CS/0D0LDJqUhPZPk7ZukFNq8XBO/b96JP5p1RqcuwzFPH4Xu088X6DvHCRHSaQyWTG0N+ZVNmPvxLZTp8TremD4D4uShpNhKvDB9Dj55ToPk47uw7IoDZcIliEnKgjnuGmIMjRDqTsDab9fiXGoSLprYGiNvknCcGEF12uPNwT3QwHEKKxd/iPkX0+Fkk5v+RNoIPPfqa3ijtQqX1q/ByN5nkeDR0Lw6mMAChwJfbZYhoKIOH/mp8eFpCao1T0fnO/6YEe+FTOLHqhTgRpQMLZ+2oPJFGS6RBxQobOhcSogdR4VoW5EdI0RKvBoX6xrQxleJZToRXb114ulKTsTd8EUCKU3VAijlfXAYlJh/1oZ5NOGP7dCAq5WJVgYNRkVJ4BYKYDFKsfmYErMzRBBozZjaMRN9YqVYkML6wyGiigXHdwfg1QM0cckYfPmMDnWu+mH8On/oZVaMIKUeGCrH5BjWJw6+pU2oFh2AQSepfrUFIzvoMdYUgHHXSQvyFzIIrz1rQKWbfui/Wwqnr4nGTI8+mQFYpneicQiH65Fy3C1o3/LXkPeeQvqkZCW+jPZDtAUoU0mHeQ1MOJDgixtkiIZVBpZvDsFhioAUKicCXEK4ZDYMaGBD9OFgjE8SQShzoqxUiL8RJOW1+4i9K1IRRUpfqOgXpyENxtzwk0nugDHJSCun0lD7K0BTylsEZpxZ8Akm/XYXCE9G6bXvoVbTFghXnEdqzjHsVRSMVj0bI4RLxIovluDnSDPUcWFo830PtO0YjvmJ5dGrSQC4+E0YM3I2jhvzFITLOIxLb/VFS3kSjmz6HZvISdE0Z/95CguNA9tPwaZPK+Hwp+PRf2MsWWf6nSkhFU5RExNWz0PHO0sxfMgaRBqYEv95KR3kRkaSGHaRC1U0AkQZCq/1SBn0Suy169CllBuX4gQILGtGuE6FRWagbXb1bgspTAKHkZUd+OW4EHatFW3VEmyMF1GkwWYrh7rNU7CvefYJ5L1WbQ3Et2kiJEf7YHGZdHzYRkczUYzvtiuQmr0edVnkuECTlxWOlPIktdkw28Gy70ypKmxPpolLOCQnKRBn43DsugzpzCtTWH1YJ8BA8qY5k8BmlGPjbQlsdDxH73+5bsIX4Q74keLbWIXZRelPobdYis9uSGEiWTidAhszTOgf5sTKTDcCJAJk0Br+74TWzFBlpCmQweqmoUpOliNBaIUvTS6XVYJket++oo2Mlgx3sqRIYMeJhLhlcaNtJQv1WYkLRjHu2NlYsx8fz5IzBgWkd5ozYCIFFGuDoGVH5K6LJNCEaGjgnDDpsnLXM3BbkZJo8oSvXPodpFgoxFD7QU1gFlBEiRZlfSUQSMPQ/6dt6J/bKof0ADXkmmD40iDaUm4hKXuC5R7yF2+YvqXt/hS9dM+hb79J2NArHjvXrseaXReRxLxe1kXMfO0dnHnpJYxbvgSZR7dgxa+7cSzWlBcO0mEsbCxbRYeptRwIUrshKpeGnxq6EUibwqZ2qWiXpsLUQ6q8frnEOHBThM5VbPBPFKN5ZTcuR8qQ6c6bugIK865eV8DeOgs15BKklbfCP0WNM2zDyTN5aI14JBjvX713c0ZAaJ+4IkP/zqRlF3xwIvscFgKXLW9G36pWREgprKV6/H3cuJmLk4BCOSGs2UEDM1Qs9M3INawUBrs5j1fPOcVFYaE5N3KkZYGZlEnigpLqzumNJyxVuOGjtmF6L2vuHBDRWKdkchBSG3oHh/J0DCgCyjGEOW0UfuWEDjSpYcQLpMRM+TihGxXE5OHpQCcp2fQdQnSjUHdWz0wkx6rxHUVNV20yrN3jj6TqJrzV2QiVTomlp7TYn0FnZRvewu086p+LVET73XM4nWRHnVDapWweiLO70jxKJgqoj5dbh0BmT8LpE0mwkzXzFKECIeW1EB01QhAUjtI0co67Ophydh5yUHAacTfTCc52G2smzcSqW7kaDpchHnqU8nhgWVB5lCLLTjpCikGTxXM+l73rSutID9j3ejRSYSSe2Yo5p7diQWh9dO/TF0uGBSFqxaeYsDIaVt11bFs8HVt/DECddt3x+swfMFG3Ax9NXIZTmV4hmYVOjArE4FgLPuiQhYO7/HFeSROhkRCf7VYhKVuavGCNvE2cCrdrmtE6TIpnxTJ8nSKEO+8AT8U2vQI7LRnoUMaOuPJunDsrRUa2kuTAU9QrJ7KjU0MrbDEKcBUz0flWIDZkCiD1M2NyUyuO7ffHXArPnCIHXuqUjjpFVfI3v5NInaD9FNJYdgKFqhrC3iFCVq5ysnkugJ0UXJ+pwozNPrjm8o5OThPMQJxJA9pVsiOY1nmewCXnx0KvzOiVr56BsRWk+Hh3IM5byOxoTZjX0buiZ23ZjAqsPaLA+tM2dGmRgUmNRBh6SA6TXYYDtCbcf8GJerV0mNDKiPgtWtwsPOcKtfmofixSEWG+ih8WHUAH2jXtMfsHhHc5gats17R5U9QvJcDdncvww0Wy0NB4++UWo+qbEzGrXBQUTTuittKG2KOHKHwA1Pl77kzG/t9OIrl+K3To3w13N5xHMqdBaOXSSP9lIa7GnsHOq0Y0btQJc7+WYtM5I/yqRcD43URMjzQiUe8AV4k2kkYNR6XEDBxbuQZH0/LNkuy2mJ5aE87ily9oTbuoLOpWcRS4dCKwp+PC1qV4f8vPCKnxFFRFDJ6Y1h2BDgqNyIMoNHbIjGro76M4bosMm1MNmNQsC7cv+iOaeZ1CigjynAdvCNGdrPtTkGN2Kll9EjTXnJDMQrpGx/6xwnZN3fSvYjU9XhKoMI42PvBUOmY1N+HCTg0SaPNI5RbheiYpIZ2j8bfQ7i2HbHviqeNB/5OorXixggPRNyXgtBb0ruJCzAWvwWB7IjnFnK7EYS4DA6rKMeeqDDpa52o0TviRR42ziXD+Am0AdcrEtKc5fH1JTjvcQohIycvKhYihcDiv0CYfeU6HWYrbVvqeNnIqlrOQR/QeI5LZUYHWfrEG6iPVG808HptytMau6A8kpouRRWvGOL2IliFcboidV//j865IRRTQuuXulhl4JTMK7w7shGebd0BtsQM6uo64bt4quo54BInOPEBdKQcwacI5tB47BM+G2XBl8/eY9PUFmGii5VdEAQF9d9ssDBQmYWT/thg0tgPkLgMSLu3DV1ZayTjisHLsR1B+OAivPNMOg+o6kXL1D3yRRrsgzrvYsWAlnv34FbTs8CJKx+zBpTV/DTSXlYBzbM+IaWehIhDYkXzlYqFvvR+lavIOWXLPJAsOcMNA67U8/13oFArBLkdJkRnqxI5YiXdzqNAhzNOm0abN1QY6VIryQRSrLFckWiM2S6GNrpyTBDh3JBAT6drrqGrAL3Sd8o5bCO6GD34J02F0bSlGRaqw9I4ew2lH93VaH2XQGvAPWnPWz6niIV7NtNa7HaTHD41o15R2ACKv+WLOTbqkUhg78kY//uGDfo0zsZjGSE2/Z+pl+PmgHykirWT0KnxEIWXf+iZM6aFHMC037FZS0Ku++EiXZ6FYyB51lXZyWxjwVQ8TeTkBrtBu8zGTNxAWSO14qY0BzUn5XDTf0mgtufC4DEYKZ7vW0+PlEBdE5JHNJgk2nVDjBjOAuZg+BAAleIqgQtWmuUa5uOVgu6ShveZh6yc1EbfwLfRacMOzxV/c7Twu9QkVWZjWmTwahWFrMwtv/JRsL9idM0vqyPDBNg3iyRvz5f+LQJEesThEEJd9Bv2610PjTtWh5qy00M6gPdf/bmF36dStaUKETo35dH2VLzwC+RH49xTRpyp69H8R1cR6XFi3BDP3pBbYncwvxJP8nm1IhFZLx9yGtL6ltdXc/XKk57sd7knuO9+3v4/Avxqa/n0x+CN5BP7bCIhdLrbC5QuPAI9ASSLwaO0YlCQSfNs8AiWIAK+IJQg+3zSPQA4CvCLmIMG/8giUIAK8IpYg+HzTPAI5CPCKmIME/8ojUIIIPFKKyNF9p8/MW4f1b1Z4rPhtOMrPG/lCOgYHFnHTagkOLt/044PAI6WIDwobJy2Nlu2qwkfwz+7SYylCyipdMH3Fbzi4qAvKFEGQxLJA/MMzsLCpHXKWhd9Ih8kV6NIPO5kyFDafUmPXPfmKD9YjdvdN7XAbAoto/8FqerijWfvNnk3FT41ZH/MwZX0Pq5mOdZSKVeYfYM3oTmqPWkr5pJ/j/WeCIM7XxsNJ/OSc9VgrovKpnhjZtw78KI/tHxVKWO7w4WDUPj4VXd/enEvvULBON8qVpZvWE0SwiNyoFQBEphF8dMOzgJgBouNluM2SU/9BkWhteKOOFSH/tD8PKwNRjFy8IYGkvAVVZPkqETvRqpIbt+jG9uR7k13yHfjnbwUCKyK/GIKe35jQbWw/1KKEEr54EfjXbnH7M4CZJ2v/7ocY3bWaJ+8wK/kSVk6Zhm/O5Vlhdj7HyRD+/GBMHt4R9YPFsCVfxoZF8/Hl9jsQVOuPrz9/EbVLu7BmR29kXlmOQR/sQ9ArozCpX2NU0FDqTGY0ts2dik+2G1Fn/BIsqLwBfYf9hljiaClQRAoEUKpTzLlYSugt+Bu7Ra1WE6KMKO+Cn4oSk8pkYBV5hUBiJjM8r8OzMVqMu+DGCOKy0e/3xXepAtRpocNASmqNDMqizH1KrKU0seMXNJh7SQIDeYGQcDNGN7CgOpuIDsrcuKbF7JsODH3OjLq+HD7tZUcWZchP3aHGLaUVw5tn4WlfFzSUuJAYq8IsoseIZjwz5XQenpnfMmzoRdQbwSIBbt1SYs5xJW5RtgLLDQyrZMa7pNx1KUXKaZZg5R4frEwXQhVgwdBmZjzrRwxrWWJsO6XBT7fFMKQocBIGdCB2gsh4oSdVS+ZrRWsi0VpJNCEs5ap0hAGj6tgRoeKob6LcvhkJq0ZtMvBCvAbHiXZjcIQbF/b5Y2Kstx6GuUDgRHrUDaRLqkOV7QakEX3w/bLBKH9yNvqM3UkUGwXHoMBYPaEfSkQR1XXfxPgW0RjTbTQl5ArhExoKjZ7yGwV5SVMsHFI3GIKFH4Rj7XuvYMglotWo0QtffPkpRqUOx6enf8KoGTWwZcg5vDZgDWJp4kki+mLuqzIsG9ANGxNcUASXQ2nKPXRSCpLuxjkcNcfD+GfLuIJ2wDPkLH3pEhEWvUacFFPb2fHrdi1iAgyYW12K8XvlyCSPyNaIBQuH2jUoaXe3H15OFkBZ2ox5bY3oFOeHNRYHXm9E+ZqHAzA2kfL0ZC6EyiiNySDBvCMuVHuGw5yNWuK/8U5GAREm7Tvjg28pf9FO+XnvdMnEkHIyjCNWAFb8y2ah/i1fvLWKKD0oD3REJwOGVZBhLOU+qsqYML2xC3speXjyXSHklHgppKReIfHqvN3WDGWkL16+IYKklBmftTEiQ++HdZlE3nRbgMmVHPBJIKYBUuaKRFWhSVLhnIcUhlKe0uVYtkeNaxSKq8oY8eWzJjxDMmyjRG6WUFyf0p8yzmkw4Chl/NO4eBO52W85pSDQAokKvmoZNMSGRxlT/8lSIqGpIz0GyT6N0fP5ugglL2NIuI0Ec8HBAVSo1q0FZAeW45dLBsqJc0N/eRMW7BGjfc9q0BYxXM7MONxBZXTt3gxP+QphSYnFrUzKcyTu0NgNX+DDr094+Fryn8rRDdjKsFpo4GdCrO7++SGMDjDISqGZk9aK/i7YdWJinbt/0SWqsI3xxZAiG1LlOEn0IeWU1Ecn41vh0LCyFXW0xGFGCa+xRtF9+V04uwSRKWKivBDAZRHjSLoAWqonx4I6jTL8SuRPWZSI5yCPt488MqPMEJNCVKQseekdFX5LZLmUJAf9zqgytKUsaOySY1U01cu+T5FjO5ETtSrjovOEuBlNbGghFkrwpv5RAnK7chzOE28NYxRgSmXJlBFFoshzE78hTYarRI0RksuVw8GcosISCnEzqK/2IhIEnZl3iekgFM2qB3jWidZr36NH0+fw9JANuEOK+18sOeP5f+277eZqDHkrCQMGvY1f31Xh2vofMHMxcZV6LGqOKFL4BpNFPq3Plz7lgD7OCHFFX8jIhBRWG3faAYx/3YI+g/rh262jkL73Z8yctx5nM4pe2DAlLNX1C+yYUQWXF47D0uuMoqHgRBATm9l4ChlrkDcJEtrwVS8TZEo31A49fowQ49e9Pvj9Ho308r3kJRKTwpGHZz5MQBwaa3f5IrkG0Rp2MUOTIcdSSmr9o0DmuhcDFhb7kUL0r22j9hnnDGXCU4hpJh6pnOIgRTbm6x7L7Pf2gIOWzjGSJyyIE2XFkyJrfLMw9xULqau3EB8TYiVeGW16OfZZ9ehMYf8FSxaaQIo5ydmMApQ0Xr2yGb0rO1FGTP0iAxmqEGJDjkDUup4y5snWFIYy9wh32mHMmN8UPyzcgPZrh6PrrEuw2KxFKm3uSU/4mxJRRAGtsYw39mLBh39gcVADDP78I8x/8w5enJ+YD247MpJt8CnnR9MgNnsySeEXpoEjNR1Wmnze4CxPcZi1tt89hZ8+OYWf50XghYmzMH9yMnqMOghdIQVjDTE5kjePRotrXTFv4Wi8uf8tzLtWMMx0mhT4eIMMtZvR2ifRF9Pi3OjTwQjHET+sz8krJPKmBynMyx0gHtD9kZSjWMuAyc+aEb9Rjds5WpFdmVBlwwdtiEryhC/eJa9nI8V8uh2tPws0lkOuUeBLzwcThZJqtdd75imjAFlkODKJBOvDLSzzPw8/z0nso5MIsaJE6FbJhqYWJxxxWlwnq8Ja8gkzYGo9YOkOH+zUE2sAhcsTehgLNP5Xm6HCoBaYOPIp7B3+AuadyKa7LFDDf+9DiYSmYv9KqFpG6Qmv7Lo7uB5vgVBK/JQF8Dfj6oa9MLcYgD61fCAi7+VToyvebcdh74YbYEPvMOngCKyCShSGekimVKGoVsGX6GLIUpuScP2WgUIrYo2jXc1yXUfg07caIaDQpQGmjObbkThFCbvl/fJoHAqIQsxiZbQCCiFploppzSQh7hUvv1GBw/7OB442KyICnFAyX0R8K/E0mRnfCu2zwE27rhZiTatIG0Ge/lC7Wgpto9JFpISAjHZV2wfmkGn9VWtCRMdIwZU3oTttGLFLBVKlA2VlxGuTpMQZ4jUdQPSOGuo/o+Xy0TpQWuq1BMyg3b0jRzzRJg4oK8Ahosuw0ndMFaVEAiwmmsMoE2FO/0LKUghLJMwPUsTa0kQTFo9jV7xKyAihFWoNeXAxjVUha/QgFT/Gx5aIRxQHPo1R815Bk0AKm2xZiD/1O6bNvQ4LkSTlFDYZzBd+xPCZr2PyJz/j7TIKuNIuYcPcCZh3itji2O+XfsHiM1MxbfN2TL28HAM/TkHfWSPQuaKcODGtSLv2B2ZNP0I8oFJiC2uM1pUTsOSHk7ROzGml0Ov95hMp31PEjH2a6AWlSiKVIo+WkudiClXyFx/JEDSqr8erpYmqkXhozMTJueWEEtepPmemAituOYjBPA1vEl/OhK1K/HDZTqzjOnSk520YMqTYR0pBV07+sjB8DAkaTDljxDstyYsSI5uLSJqW7vbBrzoZrbXdGNjEgBVNaFOLogUdfbdonwZ3sy/BOOnY7TojxsgV2Jv9OAG2cZVOa85fQ2kT6AUrjHYibrotx840ttJ8kOJV6pwzJOV7YPmGD1Hp5GR0HL4LKf9BXRSEVW70H+x2zhTwvnLCYLyweAkGnp+E1xZduOcSRsGj+U//BAEi60d4tylYPigFI3rPx3kKn31bfoJdixrh/Jj+GLY15T/J5PBghuyfjMCjfK4rBTtnL8aZBuOxdn6nIu+seZTFf1xkY3fW1Bm9EMv6EzPdjBW45LkcIkdYo0pQJx7A8sP/TSVk48d7xMdlFvNyPtEI8B7xiR5evnOPCwK8Ij4uI8XL+UQjwCviEz28fOceFwR4RXxcRoqX84lGgFfEJ3p4+c49Lgjwivi4jBQv5xONAK+IT/Tw8p17XBB4YhSR3Zvp/9xnOLi8O0IL3U/6uAzGEyWn0oI5fXToSk9dLonCckTHv5SO/v4l0/6D9rlE7jV9UCEf1+OllOP4TXsHvt/gi+MuBwZ1z8DrSgk+oc+7zHk2kKU7Vayvw5JGLkTuD8AH1725fkX1mx1btroeS5+x5zwm1nOYke4rHbBNSQ9+vd8Ns0XV9mh8Jws0YEnXLFQgSFhqWpaFns0Yo8TiswrcKsym8GiIXKQUjBGhXisdRmT5YNgpyQM9gpBXxCIhLZ4vnXQDdaaNbuzOuZuXbvKOsrvQiWg39l4W5D3QVOqg74CbD/DMRHO8FgN2yOmGdq+sbAL/3byM4uld8dbiopvc31/vg9OUZOznb0P/1gZ85JJg6ClK//JkfhRve/9WbRZ6OnImPYL8z4ggimq7RBSRU1THhOUj4Fh3GhX7dEOTUBlM13Zj3rRvsCEqiyaUGCFtBuPjYc+iZmkfytVPw7HlczDuh0iibqAJJyuNdkPfw8iejVBJ60bq+TUYNnwJ8mczcowQasrnGCVbiUGTdyBeVh1vTHwPvRuFIlAtovZ2YuaEr7EzkVhYKE0qpOVAzBjXAw0D6GnJ57fhx0MReL3BOvR+/xg9DlsI31ovYPz4V/FcuBK2u2exYs5cLDlOaTzyynj3x7lofWg0+i4s+CBWl0sEvZXLewY9Pbj1SpQQtSnPr9x1MWJotFhIzTLm69pkOOy0ojaNklibhc+72PDHFl9sNHo9p1hrxvzONuzerMUpOoYpnov+3PSXUziRAz3b69Eh2Qcjz0iQRUm89YlvZ4xKiff2KZBGuYN9m5rQkZ6060Mjn0nMAV8dVOMETR5pgBHzm3PYGedC16oOhNLjs69dV+Mbln/ZJAuNCWcHZeYvPaDB5gySibh0ZnW24uwVIVrUtKEyZeinJSvw9SEVTlJ99xR64nTbhkYMrEgUHJT2dO2mCnPPyJFYiJ9GQFhnpMuwJUaEViHsacRiOOS2+8rN8AsMNePtRhY09aUw1CbB9oM++DIlTwIWRfhSxsjsZk7sJM6edekcIqqZ8F4NB8pTkrSMxmn/GS2+ojFhSi+k9l5pYcRLlCEjtInxxyWi8XjKhhO7/LCbMnBAhvN56kv/CJKPUtku3VBj3jkZkum9OYsSo+kx5A/6aKciEMvrwL/6TlUVfdqbsXBAd9R7ug8+OFkVEz4b4KVnoG5kRh3D4jFvomWLjmj+1h4Ev/Y2epSjTENOgTpDZ+DjJjGY1acTajR5ES9N3oDrnhuIsyWW+OOZ0TMxxnc93p5KSkjhDWdJxul1n6Nvpy5o8MxAzNe3xNhBNaCkgZSEPY+Z01oj7vPX0ahJN/Sam4iWbz6NoOw5LirVBh9/0QvuFSPQvFkXdPs8Fd2mj0HXMpSa7DQg6uxpnIrOvNcKUt7ez6dkIPocb6HcPxMjZxJb0S5n7ULK0qCqC/E3pLnpWQ6jFL+nu/B8hAtSko9NpDLlrSiVocARU57iFR4fAXmQzYdVyKhkxKulaPKVNWNEmBiLjssptYgU1y7COSKqGvZLEDqv8sNaYlUbWs3paYPVJfcnudxKvL86CN02qWCvkon5TdzYtisQXVYEYG66A2/Qcx79skUQEkfOiwFSzF4XhE4r/fATpZ6NbUlyUj/zF0rAQp0GxLWjlWHK2mB0/c0HZ4JNmFQzr+2c4znK+A8MonorckggsioDVfVncsv8svBRSxv0533x4vJg9NqkwUqiKMnLA2eGzoxppIQH9/lgg44RWVE6V6oC3+70R88Vgeh/VIR6DUyor2AZl040b2pAF5cK76wiHNZrcIHyMttk0ymxvjRpkon+MjnGrQlC9/VaRIUaMb6q05PzmXJbgxXERUSN5HTpb72WnCKSnzn583ZcyHRD4MrAyVUrcdanKdqUk3tyDa3xkTgbayIqBsAUc4ISdxUIZWZcGYGu7TU4+s1qHEq00iAZkRSvy6VZIBII1Bs8HdMq/4GRE35HNFknVgQuHS6evol0xl9hT8bJgwkQhfgTf6cAQY3a4amE37D0YDLsNImM13fh+12JVKfX8wQ37YaGab/juz0JsFESbdqZzdisr4bOtX0hcCZj5+cfY/aulLxQkzVIRUAcArHptFbImRU0qQSUy7j9lgDNq5A1JSUTq+3oTIxzm4lXJtc5EDPaqSsSaCpaEM5iFsqHbF3RjSvXJEjL3ntQh2Vi4+BkHBmSRH/J+KG+w6NQdoOcrLMQbVtm4uPmDlwmGo5DzIozeYhN7tJdYpJjWflOUsoEMRTEm5ObDm0XYx1RJlK2J2xEZnWMQuXYG3JEMl4vihoi79DaVUlscjmzhjL5916Veb0aGYGDF+XI8LOiOk3oAkXqROfyHA6elyOawnU3eZld10QIrmDLpY4UkYf94rVk7BtAjxBvTYni17WYdpm8IU3o+8ktZutlMlBldUqsjCUOIRpLM/HypOfjvZH5WzCxpQOXDvtgdapXQZgiGin/8rqZcQUJyZPLcItoSIKJKgRyBzqUEmL3BRni2YA4JThyReGJXjx9ot+7lQV2XZDjNrXjInKvHUTAFRZBnEZCYoig9mOIoOtBS4mEph4hHVlIzyRqoWzLwVnTkWSVe8JGjtjcqnfph6E9GiBcTaRIlLoaFkqTlc0nsQal5WbcTKfpXYTVUdbsjUmUGOw8vx0GO7PM5A1pwsvKNsOAt3qiXVU/iIgAShoQDlUMMa1Q6KMJ1oDTJSGTxROeOeuAIYnoMEoxSSXQltbCt+Zg/LZ/AFlMVkjF5EQ3qJJ56DpyHJ7np7/x3+0YGQztLailkCAx3ApfIpq6TCQvnuZY7dQvQ7ISh4nWsFOwG7F2K1qKJVh8l00crwSmOB/0ozViGk2+3EJvGWNNUqwSR+oQtYddhfmk4BzVxzBQEC1i77oWNCEKRSEpo1RFypuUt7J0E9mTPifhmZphoa+ZEpJzwyz6zNrPnWa05vUYtmwBGH9OJpmvADarck8ChBI3AoitrlX7dHTIFZbqMUlABHaewtaIo2mNeKbQ5sxfya0mSkerSYQs71Dn1u55I3SiK7HYiWmMzxEDCrNhrDmOvq9X1YyXKLQMoqDGRaNankiQWMgvJh4eDeGVkI+BwUnrfEP2IEuIQcGXDEvv59PwgqcRNl7UOCVtyxh3y4NOhuw6Sk4RiUIvyJ9YbDlmbikuVwShrNyKi8QmpmkwEt+8H4Qlb72H96+b4VbVwpQ1470iu0xItqlQxo8x4ObRM2X3B/Y7mzB82Am0/eoTzO5/HQO/v4EsaQX0+2wiup6YgjdePYM0B1Fn9FmAVa3ZWS6YUk0Q+ASBlo6UFMy+I+oGX4WHyoNRVJmSjdCdnoeXB2/F3Xs4XvIpAjv1bxS21tpitKIbeYTbERwOHZIQO0GhESTvtCNagGlEa1jbaoMoQYvL+SbH/ZphO3cVq5nRgozaHxQCD6kkx5RrRLVIa7R+bU2oHe2DsQe8/KoV62Vghl+hmh6kO0IXgrPpNVgtElI2ihHIIxWs003Kpaf+rN7tj2UUGhYubCTvW/5CbjNtjMiDiTtWQBgWroTWovsP+GCTnxGzW2Xh6lY1Im1ulKpEPEHVhZi7ww+HGf0JeeM53b1nO8kYmcholWJC0dRkRSh2Q54tNvtdT+vQpTv88Wvmg4Dlret+/9+Lyv2OLPbvfdDktS5EqEsWW+SHJv36oa7+CPbctkKq9YPMEIPL8aSEpA5B9Z9Di9LZNsMcg637rWgxrBcaBzLSQCkCypWFNvvaocuQgvSUSCyctAbuvhMxohERLwoVCKIQMO5KLGiZA6G6Itp1jCDeGGYD3Eg5vQ+3yr2I/k0DPXG+LKwZXu0QSrnkXmuXfGwzIsu+ineerwA1tcMJZAgIj0BptqagTaHn3huH0W2CPef+LZgozDtFlygqNzainYMUJpuKIv+5LHy6E61AEq1v3qggwBEic8oig5VTmBUWMe9E8rM/8lUer6ckUuMPqgGrDmox96AcmjpGdCMPSKQ/Hk8VR+zkbN0lUhB9YgUnclkQcyp+kFcKmdvUsCGU6gZtFLUmImNfnRyX86/XWX2khFvuAB3qW1CNOG+Yl5NQiBehJZ5Vev+n5U/kZhjF35YhJcCMl8NovUkYiKneUIpWPIU8eBpdCom6osH3Jlq/NrYigDCT08AKLBLcZOttwq58mBWVcwjAKGzeQ/F/B+pXCLXt8Z60UVMpe/pxdN7mRA7dqS+VqR3WFynri4ZoO/+qL3/S0ZLziPYE7D/ug7eW/067pgoYr+zApx/8hEu0phOc+BGLro7BvF+XI9NgRtyRHVh3rgaCqSMCQRbOfj0RM955D5/8vgvl1S6knlqBwe8sQ76NMliur8XYBbWx+pP3cLrfHKz4ej/mjFyE7UOMMKZfwqYdRxHX3IuM4/YmjJleCjMm/YxTWjtSrx3EpqO3YPb3/u68uwcTRikw+oPZ2DclmALlLCRe2IJpYxcTPb8WVZs0Q1P7Onz9R3L+iOy+sLPQMy1RgdM22vi4ISNmazq0CJPoNEmxRW/CBNr1nFPIk6hCDVg/iMixsovnOuJuMbo1txK5ry+2k7V20H7z3Ct6zGphxjm6xrjqvBTjmhINJK1tsmgts4s2iNKCcmp4iFcbcegYHBjT04TKZJRS7yow6xBtDHkCwLz6BGRMz54kkmQiHh7zgtlDUuWgCX3grAZf/tUlG/I+fya3LV2JqUc4Mrh6bGpLBonW4OuJ4nJRer72icJy5xEN6nQxYnQVYuK7qcQWIl+e25N4d8hbR8fIsT/DG26wtfDBo1qENTdicV/i06UNt+PE6XrT4XXzrC/Had5q6hsx+UUjStEC20592X1Si4U0HIWCgTwh/uJdiWToey5frJ4E6dQ3Me38PQHFX4j87//MEdlU9XcX4+uQBeg28QzM+TzRv996XgtEho+OHfV4/rYvPrhCdPclJEeeRHnvOAXdOUPh3LGtvvg9+xJL3q9P1juxxowvO9mweiOFstmbf8XdwyLscHE3cf/68gKt+x/z//iFEwegZu3y8KfwhEUXyvDWeKOLP6KOxt277vh/CERtsEsWgeWy0FdLJMaxj5YS/p8gKJFmGO4+/vRcD9odZqEmuzbbqIYFpU20s3rvlkSxyVhyoWmxdaEYKhJpUb//FCxqFgpfeviC05iA47/NwhS6JOEuAS/Ebo2b3dGMKnRJYP0RLY6zNdejYrWKAe5HvQpVAK2z69kRTutZtgudQo8k+PKggi5nsKXRvyN9iYSm/05X+Fp5BB5fBEo0NH18YeMl5xEoXgR4RSxePPnaeAQeCgFeER8KNv4kHoHiRYBXxOLFk6+NR+ChEOAV8aFg40/iESheBHhFLF48+dp4BB4KAV4RHwo2/iQegeJFgFfE4sWTr41H4KEQ4BXxoWDjT+IRKF4EeEUsXjz52ngEHgoBXhEfCjb+JB6B4kWAV8TixZOvjUfgoRDgFfGhYONP4hEoXgR4RSxePPnaeAQeCgFeER8KNv4kHoHiRYBXxOLFk6+NR+ChEPgfL3ANz7FNtscAAAAASUVORK5CYII=;" vertex="1" parent="1">
          <mxGeometry x="414" y="340" width="226" height="78" as="geometry" />
        </mxCell>
        <mxCell id="1W6Do4FqAaNzwl3g4o6q-8" value="Block (to:do:)" style="rounded=1;whiteSpace=wrap;html=1;" vertex="1" parent="1">
          <mxGeometry x="100" y="369" width="200" height="40" as="geometry" />
        </mxCell>
        <mxCell id="1W6Do4FqAaNzwl3g4o6q-9" value="" style="html=1;shadow=0;dashed=0;align=center;verticalAlign=middle;shape=mxgraph.arrows2.arrow;dy=0.71;dx=15.97;notch=0;rotation=-225;fillColor=#fff2cc;strokeColor=#d6b656;strokeWidth=1;" vertex="1" parent="1">
          <mxGeometry x="550" y="551.5" width="69.79" height="30" as="geometry" />
        </mxCell>
        <mxCell id="1W6Do4FqAaNzwl3g4o6q-23" value="" style="shape=image;verticalLabelPosition=bottom;labelBackgroundColor=default;verticalAlign=top;aspect=fixed;imageAspect=0;image=data:image/png,iVBORw0KGgoAAAANSUhEUgAAAWwAAAAsCAYAAABBsIJhAAAWdmlDQ1BJQ0MgUHJvZmlsZQAAWIWVWAVYlE+3n3cTNqile4mlu7u7O0Rg6e42QFRUUEpKQgEVRBSQEkElDBBJEUERJURAUTEQBJS76hW//3ef797nnud59/zes2fOzLxnzpw5AwAbghwREQKjAyA0LCbK1kiX19nFlRe9BNCAAWABO2Ake0dH6FhbmwMK/eH/pK9PAPSTj0n8tPU///9fid7HN9obAMiagr18or1DKbiZ8mx7R0TFAABvoMj542MifuLHFMwYRRkgBS/9xP6/8fZP7PULI+h+6djb6lGwAABUODI5yh8AnDRFzhvn7U+xg6P0hWII8wkMA4DBh4I1Q0PDKZz1AkVHmKITQcEDFKzs9S92/P9h02vXJpnsv4t/z+UXUekHRkeEkBP/n5/j/6bQkNg/fZAoDy4gytiWwinjgiaDw812cZiXpdUfHOjzS/8XDog1dviDvaP1XP9gH7K+2W7bEEvzP9gv0NBk106Mif0f7BttYPcHR4Xb7vblF6Wn8weTo/72GxvssCsP8DXZtZ8UYO/0B8cFOlr+wdHBdmZ/dfR25VGxtrvj9w0z0v3br+Hu3EOj/2W+gSa7bWMC7I13507+O37fMJ2/NqOdd8fm46tv8FfHYVc/IkZ3t6+IEOtdfd8Qo115dJzdbtsYyoL829Z69xsGkU2t/2BgDgyAPuAFeiAQhAFfEArIlDd9yls0iAAhlLfEGN+EmJ8T0wuPSIwK9A+I4dWhRJwvr0mYt6Q4r6y0rDwAP+P39/L4bPsrLiHm4b+ySEp7VRUAYGV/ZWQxANrFKWFz5a9MQBEAbAkAHfPesVFxv2WInz9IgAG0gBGwAW7AD4SBBJAFikANaFNGbwqsgD1wAe7AGwRQxh8F4sF+cAikgQyQDfJBMTgHzoNL4CpoBNfBTdAN7oOHYASMgykwAxbAW7AKvoItCILQEB4iQGwQDyQIiUGykDKkCRlA5pAt5AJ5Qv5QGBQL7YcOQxlQLlQMVUA10DXoBtQNPYBGoafQLLQMfYI2YXAYDsYI44KRYFIwZZgOzAxmD9sL84dFwpJgR2CZsCJYJewKrBXWDXsIG4fNwN7C1uAAjoUzw4lwCbgyXA9uBXeF+8Gj4Afh6fACeCW8Dt4O74WPwWfgK/BvCBSCgOBFSCDUEMYIB4Q3IhJxEHESUYy4hGhF3EWMIWYRq4gfSDySEymGVEWaIJ2R/sh4ZBqyAFmFbEHeQ44jF5BfUSgUM0oIpYQyRrmgglD7UCdRZah6VBdqFDWPWkOj0WxoMbQG2gpNRseg09Bn0FfQnehH6AX0BhWWiodKlsqQypUqjCqVqoDqMtVtqkdUi1Rb1HTUgtSq1FbUPtSJ1FnUF6jbqYepF6i3MPQYIYwGxh4ThDmEKcLUYe5hnmM+Y7FYPqwK1gYbiE3BFmEbsH3YWew3HANOFKeHc8PF4jJx1bgu3FPcZzweT8Jr413xMfhMfA3+Dv4FfoOGQCNJY0LjQ5NMU0LTSvOI5j0tNa0grQ6tO20SbQFtE+0w7QodNR2JTo+OTHeQroTuBt0E3Ro9gV6G3oo+lP4k/WX6B/RLDGgGEoMBgw/DEYbzDHcY5glwAj9Bj+BNOEy4QLhHWGBEMQoxmjAGMWYwXmUcYlxlYmCSZ3JkSmAqYbrFNMMMZyYxmzCHMGcxNzI/Yd5k4WLRYfFlOcFSx/KIZZ2Vg1Wb1Zc1nbWedZx1k42XzYAtmC2H7TrbNDuCXZTdhj2e/Sz7PfYVDkYONQ5vjnSORo5nnDBOUU5bzn2c5zkHONe4uLmMuCK4znDd4VrhZubW5g7izuO+zb3MQ+DR5AnkyePp5HnDy8SrwxvCW8R7l3eVyEk0JsYSK4hDxC0+IT4HvlS+er5pfgy/Mr8ffx5/D/+qAI+AhcB+gVqBZ4LUgsqCAYKFgr2C6yQhkhPpGOk6aUmIVchEKEmoVui5MF5YSzhSuFL4sQhKRFkkWKRMZEQUJqogGiBaIjosBhNTFAsUKxMbFUeKq4iHiVeKT0jgJHQk4iRqJWYlmSXNJVMlr0u+lxKQcpXKkeqV+iGtIB0ifUF6SoZBxlQmVaZd5pOsqKy3bInsYzm8nKFcslyb3Ed5MXlf+bPykwoEBQuFYwo9Ct8VlRSjFOsUl5UElDyVSpUmlBmVrZVPKvepIFV0VZJVbqp8U1VUjVFtVP2gJqEWrHZZbUldSN1X/YL6vAafBlmjQmNGk1fTU7Ncc0aLqEXWqtSa0+bX9tGu0l7UEdEJ0rmi815XWjdKt0V3XU9V74Belz5c30g/XX/IgMHAwaDY4IUhn6G/Ya3hqpGC0T6jLmOksZlxjvGECZeJt0mNyaqpkukB07tmODM7s2KzOXNR8yjzdguYhanFaYvnloKWYZbXrYCVidVpq2lrIetI6w4blI21TYnNa1sZ2/22vXYEOw+7y3Zf7XXts+ynHIQdYh16HGkd3RxrHNed9J1ynWacpZwPOD90YXcJdGlzRbs6ula5ru0x2JO/Z8FNwS3N7cleob0Jex+4s7uHuN/yoPUgezR5Ij2dPC97bpOtyJXkNS8Tr1KvVW8970Lvtz7aPnk+y74avrm+i34afrl+S/4a/qf9lwO0AgoCVgL1AosDPwYZB50LWg+2Cq4O3glxCqkPpQr1DL0RxhAWHHY3nDs8IXw0QiwiLWImUjUyP3I1yiyqKhqK3hvdFsNIOSgNxArHHo2djdOMK4nbiHeMb0qgTwhLGEgUTTyRuJhkmHRxH2Kf976e/cT9h/bPHtA5UHEQOuh1sCeZP/lI8kKKUcqlQ5hDwYcGU6VTc1O/HHY63H6E60jKkfmjRkdr02jSotImjqkdO3cccTzw+NAJuRNnTvxI90nvz5DOKMjYPul9sv+UzKmiUzuZfplDWYpZZ7NR2WHZT3K0ci7l0ucm5c6ftjjdmsebl573Jd8j/0GBfMG5QkxhbOFMkXlR2xmBM9lntosDisdLdEvqSzlLT5Sul/mUPTqrfbbuHNe5jHOb5YHlkxVGFa2VpMqC86jzcedfX3C80HtR+WJNFXtVRtX36rDqmUu2l+7WKNXUXOa8nFULq42tXb7idmXkqv7VtjqJuop65vqMBtAQ2/Dmmue1J41mjT1Nyk11zYLNpS2ElvRWqDWxdfV6wPWZNpe20RumN3ra1dpbOiQ7qm8Sb5bcYrqVdRtz+8jtnc6kzrWuiK6Vbv/u+R6Pnqk7znce37W5O3TP7F7ffcP7d3p1ejv7NPpuPlB9cKNfuf/6Q8WHrQMKAy2DCoMtQ4pDrcNKw20jKiPto+qjtx9pPeoe0x+7/9jk8cNxy/HRJw5PJifcJmYmfSaXnoY8/fgs7tnWVMpz5PP0abrpghecLypfirysn1GcuTWrPzswZzc3Ne89//ZV9KvthSOv8a8LFnkWa5Zkl24uGy6PvNnzZuFtxNutlbR39O9K3wu/b/6g/WFg1Xl14WPUx51PJz+zfa7+Iv+lZ8167cXX0K9b6+kbbBuXvil/69102lzcit9Gbxd9F/ne/sPsx/Od0J2dCHIU+ddRAE55YH5+AHyqBgDvAgBhBADMnt/n6/8mOOXwAaNwR0gSegsrg7sjRJBo5EfUMnqC6iX1LGYdh8STaMxoY+jK6ScIWEZNpiTmepZFNlF2Mkch5zA3kkeB15eYydfI/0jgPQkmRCNMK4Kl7HzfxN6Jz0qMSd6RapG+IJMte0AuSN5RQVtRVImgtK28oDKg2qxWqn5YI0jTVktTW1yHR5dZj06f2gBh8N1w3WjVeMlkxnTSbMj8nsVNyyarq9aXbWpsL9tdta93uObY5NTk3OzS7Nq0p9Ht2t5693qPRs82crfXgPdTn9e+X/x2ArCBzEF8wWIhCqFaYSbhDhG+kfFRp6KrYjpjJ+M+JlAn8iYp7bPc730g4WB6cmFK+aGK1HOHi45kHU1L23cs8rjfCdd0ywydkwqnhDM5sxiysTnUudjTdHms+cQCsUL5Io0zBsUWJQ6le8q8zwafiylPqciurDjfcqH/4suqL5eoajgvS9XqXnG46l+XUH+8oeBaZWNtU1Nze0tn673rD9oGb4y2j3dM3py69fL2q863XWs98DtMd4Xvqd+37vXui3+Q3l/6sH6ge3B0aGb43cja6Oaj7bGtxxvja08+TryjrLb5Zy+mJp8/mh580ffy3sz92f65R/PTr5YX1hahJdwy6xv+t5IrKu/03pt8MFvV/yj7ieXTp8+9X86sBX9VX6dZf7lR/y1l02aLuPVxu/t7zg/PHemdnX/4XxLJi/xM8f8bqjnqj1gMThBvQBNAm0XXQ/+ZIMHowXSG+TErns2C/ShHF+dXbjEeD96TxGa+J/xfBGlJnEIkYaIIqyhWdENsTnxIol3yvNRJ6TgZT1kTOWl5FvnvCq8U+5XqlfNUklTd1XTVSRpUGm81R7XatM/r5Oim6sXrhxh4GToamRlrmsiY8psxmaPNNyzeWD63GrXus+mxvW3XYd/m0OLY4FTrXOVS4Vq8J8/t1N5j7qkeyZ7J5FSvdO/TPqW+1X4N/m0BXYF9QcPB4yHPQ1+FrYRvRKKiWKLFY3RjnePC4g8nFCZeSerc92j/qwNrybAUzCGaVNxh1OEfR74cXU6bPjZ6/N6JtvTajLMns0+lZsZnhWb75/jnBp2OykvKP1yQUXi6qORMZXFNSUNpS9nNsz3nHpY/qXhVuXYBdZG1SrRa/ZJljcfliNqUK9lXy+vq62819F8bb3zZtNS82rLRutOGuoFvZ+xgv8l7i3RbvFOuS6PbtMflTsjd5Hun71f3tvcNPpjp/zSAGGQeIg0rjOiOmj+yG3N67Dru9sR9wmPS86nnM/IU+Tl5mvyC/NJ7JmA2Ym7/fPqr4oXa1x2LA0vTy+/ebK/g3rG/J32QXJX6KERZATufZ790r5V/PbjutqH6jfXb182xrYbtU9+Dfhju8P+b//9z/A8RMIzqTNGU+P9AiX9vjhLOx9x4HnXeYGIh323+OYEfJHohorCoiIiokBhRnF2CTpJaCkh9ll6UmZTtk2uVr1LIVzysFKm8V8VMVUmNX51GfUNjXnNEq0u7SeeSbrleiX6+QabhMaMU4wSTCFN/M3dzewsTS00rRWspGxFbkp2APZ8D0ZHHidOZzYXZlWEPzg29F9r73f2bx7rnBnnLG+ZD5Uvrx+zPGUAMJAWJBkuFyIYqhKmEa0UYRdpEeURHxKTE5sRVxF9L6EocTpre93b/xkFYMiYFd4g6FaJk0VdHHh/tSas/VnY8/URsOjnD4qTyKf5M2szvWe+y53Ke506ensibzH9aMFk4WTRx5knx45Kx0tGy4bOD54bKRyueVE5TMt3qxc1qxCV8DdNl7lrSFcmr8nWq9VoNetf0Gw2a9Jt1W7RbNa6rtindkGuX6hC7SbrFd5u7k6OLo5u7R+COxF2le7r3LXqd+rwehPTHPUweOD6YM1Q0fHakYrTyUflY6ePC8ZwnGRNHJg88jX8WPhXw3HPa5YXdS+sZm1mnOa/5yFepC/mvLy12LA0uz7z5tIJ4x/he4IPsqsZH/U+Gnw2/6K1pfVVbV9yQ+Sa2Sdri3Wb7TviB30H99P/ve5afhKLUlBcoecLhGADmOQCcVQOAhAEARwOANR4AexUA080CMDk5AJM+v5s/IErhSQ3oACsgAjGgRKmPbYAHCAfJlJqyErSAB2AafIYwEBFSheyhcCgdqobuQwswFEwYZk6p9Yoo9d0KnA1uDE+C18OXEAKUSu0CYgkpSanFelC0KE9UE5oK7YnuoGKlSqB6Rq1FXU2pkw5i3mE9sKM4fdx1vCj+LA0TzSlaKtqjdEi6Y/Q4+tMMXAw1BCVCL6MT4yJTIjOWuZxFiWWENYQNw1bLbsn+haOU04jzM1c5twX3Jk81rwMRSWzlC+In8j8TyBe0JRFI40LFwp4iQiLvRJvEEsW1JFASw5IlUgHSyjJYmZeyrXLZ8iEK5oqyStzKBBUaVTo1FnWihpSmlpaddpDOEd0KvW79eUO0kaixmUmg6VGzcvMOi0nLdWs2Gw1bX7ss+w6Ht5S1bOWS6tq8Z2Evs7uhR7xnLXnGm83HzjfHbzSAEOgcVB68EqoWlhm+GGkQVR2Dj42Pe5Vgn9i7T2N/60HZ5IZDMqmNR+SOXjsmcbwqnTuj6BQhMyebPifvNHteZYFEYccZi+L50uSz/OdGKo6e17kIr3pwKfeyxxXpOnj9s2vNTTktkddtbkh3YG/O3W7pSutxvit+H9Y79aD1Yf5g3LDrqO6Y9LjwhOxTh6mi6a2ZuLnthWNLLG+uvDP88OrTsTWp9eebmd/1f+0ff/zP8sv/ihT/WwN3EAoOgExQDprAfTAFViE0xA0pQdZQMJQGnYe6oRkYBOOHGcKCYbmwDthrOAGuC4+FX4a/QhARZMRFxApSHpmMHERxocJRd9Gc6Dj0GKWWzqP6Ru1J3Y9RwlRh2bCncHBcEu4jPhA/S7OHZoLWkXaCbg/dHH0w/TrDUQIzoYZRk3GMKZBph7mQRYZlkOJ9GrZGdmcOGEcdpxsXnquTO4pHkGeSN52oQfzEd4mfLMAlMCVYQnIXEhB6K9wikiJqLsYiNi9eJ5EoaSjFKLUg3SaTKesrpy3PKb+lMK14h5LPKlSKVUvUKtXrNG5R9rPX2ju6HHqq+m4GhwxrjEaNv5lym2mZe1gcsCyzum09Z0ttJ2vv7nDK8bbTZxcRV689JW5j7hgPHc8E8jWvtz7Cvv5+Nf7vAuWDDgb3h7KFBYd3RbJFxUVPxKrHXUigTTyQ9H4/+cBksk3KYKr54cGj1mmPjtueGM2wPNmfaZzVm2OSO5TnkP+iMLhos/hkKbGs45xL+Y/K2gvuVSzVj2vya12vEutWGm40pje7t8q34W8sdnTeyuv07Za/A+4O3i/tC+3XHmAZXB0eGK0dyxyPm/B/6j+VNF398u2czqvKRcxy7NuF966rjz5brY1sOG6+/B76D///5/h/8Sv++X7Ff9iv+L9HiX8kTAhmBouAFcI6YW/gzHADeDy8Fj6H4EK4IooRz5FEpD+yAbmNMkWVoD6gDdBl6A0qB6oWahbq/dTzGAtMO1YYW4SjoqyAFbwH/jGNOc19Wl3abjpduvv05vTjDGSGD4SDjDSM5UyyTPeZ3Zi/sGSxirMOsIWxE9g7OHw5GTi7uCK4eblHeA7xyvK+Jpbw2fHT8D8UyBC0INGTngpVCoeKqIgiRUfFysQDJZQk0ZJPpeqkj8q4y6rKscltyr9Q6FVsUapVvqRSp9qhNqA+q7GpxaytoOOse1CvWn/MEG4kZ+xtkm3abjZnQW0pY+Vqfczmuu2yPbeDk2Ou04gLnavdngK3SXd2jz2epeQX3vw+Qb7N/lCAdWBl0HqIVWhtOCYiNHI8WjemMU4ovjyRM6lkP+eBymTRlJZUvcOPjwakbR/PTidmNJzSyHyQ7Zjz+nRCPq7gQpHmmamSfWXcZ++Wh1fynH9yMb/atUbw8tqVvrpzDYmNTs1KrRxtsBsrHRO3ujuru9PueNyT6YX6RvrLB6KGjEZ4Rr+NPRlvnSh+emgqbNrrpces/3ziwunFpuXJFfBebNX108kvPV+3viltxX2/8dP/v+/mf+UPOgBySbBmIcG+iy+J/34v/vve/l9qk3/n4Fd2+Uk/s8svTsk04L8ARptjEDUdW8wAAAB6ZVhJZk1NACoAAAAIAAQBBgADAAAAAQACAAABEgADAAAAAQABAAABKAADAAAAAQACAACHaQAEAAAAAQAAAD4AAAAAAAOShgAHAAAAEgAAAGigAgAEAAAAAQAAAWygAwAEAAAAAQAAACwAAAAAQVNDSUkAAABTY3JlZW5zaG90PdYjiAAAAu5pVFh0WE1MOmNvbS5hZG9iZS54bXAAAAAAADx4OnhtcG1ldGEgeG1sbnM6eD0iYWRvYmU6bnM6bWV0YS8iIHg6eG1wdGs9IlhNUCBDb3JlIDYuMC4wIj4KICAgPHJkZjpSREYgeG1sbnM6cmRmPSJodHRwOi8vd3d3LnczLm9yZy8xOTk5LzAyLzIyLXJkZi1zeW50YXgtbnMjIj4KICAgICAgPHJkZjpEZXNjcmlwdGlvbiByZGY6YWJvdXQ9IiIKICAgICAgICAgICAgeG1sbnM6dGlmZj0iaHR0cDovL25zLmFkb2JlLmNvbS90aWZmLzEuMC8iCiAgICAgICAgICAgIHhtbG5zOmV4aWY9Imh0dHA6Ly9ucy5hZG9iZS5jb20vZXhpZi8xLjAvIj4KICAgICAgICAgPHRpZmY6Q29tcHJlc3Npb24+MTwvdGlmZjpDb21wcmVzc2lvbj4KICAgICAgICAgPHRpZmY6UmVzb2x1dGlvblVuaXQ+MjwvdGlmZjpSZXNvbHV0aW9uVW5pdD4KICAgICAgICAgPHRpZmY6UGhvdG9tZXRyaWNJbnRlcnByZXRhdGlvbj4yPC90aWZmOlBob3RvbWV0cmljSW50ZXJwcmV0YXRpb24+CiAgICAgICAgIDx0aWZmOk9yaWVudGF0aW9uPjE8L3RpZmY6T3JpZW50YXRpb24+CiAgICAgICAgIDxleGlmOlBpeGVsWERpbWVuc2lvbj4zNjQ8L2V4aWY6UGl4ZWxYRGltZW5zaW9uPgogICAgICAgICA8ZXhpZjpVc2VyQ29tbWVudD5TY3JlZW5zaG90PC9leGlmOlVzZXJDb21tZW50PgogICAgICAgICA8ZXhpZjpQaXhlbFlEaW1lbnNpb24+NDQ8L2V4aWY6UGl4ZWxZRGltZW5zaW9uPgogICAgICA8L3JkZjpEZXNjcmlwdGlvbj4KICAgPC9yZGY6UkRGPgo8L3g6eG1wbWV0YT4KbDqyfQAACfdJREFUeAHtnHl0VNUdx79vtkwySQghCQlZkCUBBaRsKoQWKCASDOApCLKrUNBWRYpVajV4oAWRnkJdsMfaVmwrIMgaRKyHpVTKJhB2SEhKBrKHbDOZTGbe633JZAFkkhw5No/53n/mzbvL+93P757v/c3v3USKjR+ggIUESIAESKDVE9C1egtpIAmQAAmQQA0BCjYXAgmQAAlohAAFWyOOopkkQAIkQMHmGiABEiABjRCgYGvEUTSTBEiABCjYXAMkQAIkoBECFGyNOIpmkgAJkAAFm2uABEiABDRCgIKtEUfRTBIgARKgYHMNkAAJkIBGCFCwNeIomkkCJEACFGyuARIgARLQCAEKtkYcRTNJgARIwNC1+49IgQRIgARIQAMEGGFrwEk0kQRIgARUAhRsrgMSIAES0AgBCrZGHEUzSYAESICCzTVAAiRAAhohQMHWiKNoJgmQAAlQsLkGSIAEvhcCRqMBYe2Cv5dn3a0PoWDfrZ7lvEigFREwCbFesXgGVqTMRFRkaCuyTFumULC15S9aSwKaIyDpJDw8qRuqKivgqHZh8StTEREeorl5tMRgxRiFKb95AQv6+ENRlJZ09dqWgu0VDytJwPcI6PUSosJNt0xcvafWtaRIkoSExwJhuz8fh5RTcFU7IbvdeHXB4y0ZptW3VcyRSHwgHH514uwsxN51u7AtvRIqgztVKNh3iiTHIYG7hEBEWyMS4vzQOcavfkbqtXpPrWtJ6ZxkQYcHzciUsrG57TZ8UbIPDocd5y5ZWzJMq26rRtDBPYZi5vAo+HsslaRqXDt1Aenld9Z0w50djqORAAlonUBOoRNmPwlxkaaa6FCWFcS2N8GaVw21rrml00gL4ob4Ixs5yBKCHVbVFkcLD6LgdAWO7sz3OowqgubYfpgzbySGdTKjKjcDqbty0XukGX9+bTvOV0nQt43HpNlJSO4ZAr2jEIc2b8WaXdmwKSbc9/Q8PF15CMdjHkJSzzAEysU4tm0rfr/lMsoVCYrOgj7jxmNOUle0N1Th2vH9WPPh1zhnA/y6PIIVMyqx9qtgPDH9AXTJ+xzPvv5v2HuOwM+n9EGP9hb4Szac3b0NK/5xAcoPkpDybC/cE9QNaz4Yg7LTW/DSeyUYu3w6oj9ejTdPVkGRLLh/bDJmJ3VDnAUot57Dlo92YPNZG2SY0feFn2FS9gGc7z4Io7qHwt9ViIObNuHtVCvsjSJ0Rthelw0rScA3CWRercKVXCdiIow1wq2KdYbV0WwYsYMDcM/IACHV+cjQZSHUKUQ1E5DzzTiSmgdZlr2PZYrGxOdHI/70Bjw5bTGmvXEA8pDB6BFQ203Rh2HsggkYmLMTzzy1GFOFoJrGTsbs3qJBTVrCD/cm9YW840+YPuN1PLHsFNqNfRSPxhlEtQ7RD0/GwsRS/PXlJZgw+318qiTil092RzBq883mzoMx98FSrF20BJPeOIgcN2C/moFt772L6bMWY3LK1zAMH43xnYwoPbELb31qRX7aZjwz57eY+4dzKG2UBVHEBhE14nG8MsyB9b9eivFTl2LhZ1UYNX8SRkXWSbA/eif3QMmG9zF1RgpmrLqEzhOSMby+vnbeda29w2MtCZCAbxNoJEBNgYjqb0bXsRbkogDndekIcQXDeFnoaJEJhalBzXoJZ4q+D4NCsrF+52WUCcFzl2YidWsGSj06b4rtjRGR17Bh+0WUuCU4c89iR5qEfokNaYmy0/uRqkawwnZb5lkcKRabSIhIKhjaIXFYe1zZvg9HioQSu0twePcFyL16o4snp6ETEe7Wj/6FNPGLwlktRFxEudVFWTh1pRJuce24mo7jYj6RQfqmcIh/ABKC/kOikJO6F//Jd4mh3Mg7shcbc6Iwqn8o9DUbjIyib/Zjt8h5y5KC0otncKLCgti2NyZBbvzW9KPZggRIwAcIdIr2q4+sZSEoanpELRnZ3qPsH/byQ+C4IFhRXCPWwa4g+GVIcF03oWi7EGuhj80pBkswzI4SlFTVtlZf3DnLy2D3CLbBEoI2IfFYsDoFz3kOYejE0UHHcYPnHyTJsF23oz6BI+bgVnVXDVENAYgIsqD3nBexYZbHGp0eZuclmD2KKNuKYS1XH1a7UymKEbGDhmLKyATEBYoNBAaExxhxsjkbmXhemEUIcoEqxp4OsgMFxS5Y2vmLkdREtxtlRZVwecwR25v4FQIYbxqfgl0PiBckQAIqgagwU41AZ+c5cdlaq5iqzqh5bHul7DWPPXOAHiHFDkyLTkeQ24KALCPkUgOKt7eB0qBGTYJ22cURQL8IBKv7hEe0dWZ/mHQVNX1d9lKUFpzGqpc+wVHbjaqmSJ4Xox4hv+VhrkoUCvE/+Je3seSw7aZTHBLEY1W59CRHanub40fg9dlx+HL5h1h5UUTZpg6YvkzkqOsGr4mS677c9Omyo8CmQ8/wAOgUR61o68wIb2eALd2O6rrmYozbmVzXhCmROhL8JAESqCGQf70aF69U1Yu1elMVbvWeWuetRAW6EBpoQkpufwRl+kEp1aNoWzDk+lDXW++GOufVMzhs64gJI+JgESkC+Edh+OguCPUoljM7DXuKOmLaY90RYRJCpzZpF4mObZohaSLdcWBfIRIm/hgD1V8OorPkF4y4joEw3kZ49f5BMFcVIP2aEGsRdQcn9MJDHepOzMioLKuELjwGMeKF4i3nrmWRcvmnFeFjhmBghIiRFT0iBgzFxA65+PLY9Yaou2H6t71ihH1bNKwgAd8k4Ba5g5yCWxX22+41JnRvBxkv/j0T7z4/AP3aGJGYFYNNO+1we8+iNB6i4brKinWrv8BP503D2p8Y4Sj4L/YeykJe+9omkisfn/1uI6RZj2DlB1PRVoh2hThJsuWdT5BV0jDMt11Jkgzr5+vwln4Mnkr5FRaJPLFsv460XRvxZla5EORbi+3CHnx8aiKeWz4fdpsThWe+wVdp5egqmqrpmtKTe7BlyAS89scBqEzbKlI1efWDSGLDyd+7Acv8kzF3yatYGKSDzXoeW1atx65cT46nvrX3C2lY8i+aisK9j8BaEiABEhAEEiJlBOqLYA6OwYnMatgdLROjpiAG9JqId2aWYOmi3bhcfWMapKm+d0s9I+y7xZOcBwn8nwlczFXTEeGAOBL4XYuiGBDZLRLS1WvIqXBDHxiLUePigfT1EKcN694FftfHaK4/BVtzLqPBJOALBMQpjL4jMf/ljgj3FxtBtR1Zx/Zh5d8ybvhDEl8g0XiOTIk0psFrEiABEmjFBJrxSrUVW0/TSIAESMCHCFCwfcjZnCoJkIC2CVCwte0/Wk8CJOBDBCjYPuRsTpUESEDbBCjY2vYfrScBEvAhAhRsH3I2p0oCJKBtAhRsbfuP1pMACfgQAQq2DzmbUyUBEtA2gf8BiTYC/pxE9/YAAAAASUVORK5CYII=;" vertex="1" parent="1">
          <mxGeometry x="380" y="683" width="310.02" height="37.47" as="geometry" />
        </mxCell>
        <mxCell id="1W6Do4FqAaNzwl3g4o6q-11" value="" style="html=1;shadow=0;dashed=0;align=center;verticalAlign=middle;shape=mxgraph.arrows2.arrow;dy=0.71;dx=15.97;notch=0;rotation=-135;fillColor=#fff2cc;strokeColor=#d6b656;strokeWidth=1;" vertex="1" parent="1">
          <mxGeometry x="630" y="620" width="69.79" height="30" as="geometry" />
        </mxCell>
        <mxCell id="1W6Do4FqAaNzwl3g4o6q-12" value="" style="html=1;shadow=0;dashed=0;align=center;verticalAlign=middle;shape=mxgraph.arrows2.arrow;dy=0.71;dx=15.97;notch=0;rotation=-90;fillColor=#fff2cc;strokeColor=#d6b656;strokeWidth=1;" vertex="1" parent="1">
          <mxGeometry x="494.57" y="657.57" width="78.92" height="30" as="geometry" />
        </mxCell>
        <mxCell id="1W6Do4FqAaNzwl3g4o6q-14" value="&lt;h2&gt;1&lt;/h2&gt;" style="text;html=1;align=center;verticalAlign=middle;resizable=0;points=[];autosize=1;strokeColor=none;fillColor=none;" vertex="1" parent="1">
          <mxGeometry x="520" y="710" width="30" height="60" as="geometry" />
        </mxCell>
        <mxCell id="1W6Do4FqAaNzwl3g4o6q-15" value="&lt;h2&gt;&lt;font color=&quot;#ffffff&quot;&gt;2&lt;/font&gt;&lt;/h2&gt;" style="text;html=1;align=center;verticalAlign=middle;resizable=0;points=[];autosize=1;strokeColor=none;fillColor=none;" vertex="1" parent="1">
          <mxGeometry x="610" y="500" width="30" height="60" as="geometry" />
        </mxCell>
        <mxCell id="1W6Do4FqAaNzwl3g4o6q-16" value="&lt;h2&gt;3&lt;/h2&gt;" style="text;html=1;align=center;verticalAlign=middle;resizable=0;points=[];autosize=1;strokeColor=none;fillColor=none;" vertex="1" parent="1">
          <mxGeometry x="690.02" y="638" width="30" height="60" as="geometry" />
        </mxCell>
        <mxCell id="1W6Do4FqAaNzwl3g4o6q-17" value="Protocol: &#39;generation&#39;" style="rounded=1;whiteSpace=wrap;html=1;" vertex="1" parent="1">
          <mxGeometry x="100" y="470" width="200" height="40" as="geometry" />
        </mxCell>
        <mxCell id="1W6Do4FqAaNzwl3g4o6q-18" value="&lt;h2&gt;Top&lt;/h2&gt;" style="text;html=1;align=center;verticalAlign=middle;whiteSpace=wrap;rounded=0;labelBorderColor=#FCFCFC;" vertex="1" parent="1">
          <mxGeometry x="20" y="374" width="60" height="30" as="geometry" />
        </mxCell>
      </root>
    </mxGraphModel>
  </diagram>
</mxfile>
